<svg xmlns="http://www.w3.org/2000/svg" width="597.255" height="671.251" viewBox="0 0 597.255 671.251">
    <defs>
        <style>
            .cls-1,.cls-9{fill:#17b50d}.cls-1{stroke:#707070}.cls-2{fill:#5b2f20}.cls-3{fill:#d28d7b}.cls-4{fill:#f1c6ae}.cls-5{fill:#82573e}.cls-6{fill:#b28068}.cls-7{fill:#fff}.cls-8{fill:#afcde7}.cls-10,.cls-13,.cls-14{fill:#0a152b}.cls-11{fill:#d0f4ce}.cls-11,.cls-12,.cls-15{stroke:#0a152b}.cls-11,.cls-12{stroke-width:6px}.cls-12{fill:rgba(255,255,255,.55)}.cls-13,.cls-14{font-size:32px;font-family:Poppins-Bold,Poppins;font-weight:700}.cls-14{font-size:26px}.cls-15{fill:#fadd02;stroke-linejoin:round;stroke-width:14px}.cls-16{stroke:none}.cls-17{fill:none}
        </style>
    </defs>
    <g id="Group_60" data-name="Group 60" transform="translate(-1061.745 -218.814)">
        <g id="Ellipse_13" class="cls-1" data-name="Ellipse 13" transform="translate(1148 271)">
            <ellipse cx="255.5" cy="255" class="cls-16" rx="255.5" ry="255"/>
            <ellipse cx="255.5" cy="255" class="cls-17" rx="255" ry="254.5"/>
        </g>
        <g id="Group_59" data-name="Group 59" transform="translate(1100.57 218.814)">
            <g id="Group_15" data-name="Group 15">
                <path id="Path_28" d="M283.914 209.4a158.11 158.11 0 0 1-4.155-10.721c-1.958-5.634-4.026-11.21-6.479-16.6a243.926 243.926 0 0 0-33.58-21.249c-11.692-5.95-29.351-14.2-41.707-5.752 33.107 7.147 65.943 27.017 85.921 54.322z" class="cls-2" data-name="Path 28" transform="translate(164.599 -70.618)"/>
                <path id="Path_29" d="M174.152 207.111a73.015 73.015 0 0 0 15.405 9.9c2.416 1.152.546 4.283-1.671 3.962-.209-.03-.414-.064-.623-.1 11.443 3.373 24.354-.957 32.5-9.108-17.369 0-38.506 0-50.444-14.145a12.625 12.625 0 0 0 4.833 9.491z" class="cls-3" data-name="Path 29" transform="translate(96.677 38.749)"/>
                <path id="Path_30" d="M270.72 320a40.85 40.85 0 0 1-3.251-7.507A40.85 40.85 0 0 0 270.72 320c18.336 9.63 40.585 19.728 59.875 9.664 19.192-27.336 26.942-59.342 27.99-91.251a1.591 1.591 0 0 1-1.156-.987c-2.709-6.324-1.661-13.07-6.709-18.626-3.683-4.053-8.673-8.09-14.179-9.3-13.1-2.874-22.548-.226-33.361 7.264-3.639 2.52-8.76-2.514-6.159-6.159 9.66-13.545 28.792-16.982 43.22-9.879 6.735 3.319 12.952 8.622 16.375 15.422q.273.541.556 1.112c.02-11.065-.364-21.962-3.609-32.195a152.394 152.394 0 0 0-57.031-25.827 19.729 19.729 0 0 0-1.715 1.3c-1 .852-2.955.071-2.419-1.408a17.708 17.708 0 0 1 2.7-4.923c-.674.121-1.348.232-2.018.327-6.014 1.2-13.043 4.438-17.652-.6a28.326 28.326 0 0 0-.943 4.01c-.421 2.557-3.892 1.587-4.151-.563-.118-.964-.168-1.9-.192-2.81a11.939 11.939 0 0 1-11.106-3.127 26.65 26.65 0 0 1-.367 2.183 1.964 1.964 0 0 1-3.252.859c-.152-.138-.283-.3-.428-.448-4.478 3.171-9.68-.512-14.344-3.423.185.307.377.6.559.916a1.684 1.684 0 0 1 .121 1.307c.172.094.35.175.526.273-.175-.1-.354-.179-.526-.273a1.59 1.59 0 0 1-2.069 1.223 41.811 41.811 0 0 1-8.08-4.249 28.806 28.806 0 0 0-16.17 3.5 3.3 3.3 0 0 1-.078 5.28c-5.4 4.053-9.637 9.667-13.424 15.59a35.657 35.657 0 0 1 17.888-3.568c13.471 1.2 22.457 13.953 20.018 26.989-.782 4.188-6.843 3.666-7.932 0-2.554-8.585-5.576-16.544-15.917-17.164-9.508-.569-16.123 2.81-23.01 8.518a73.814 73.814 0 0 0-10.779 29.2c-1.809 13.134-2.935 26.137-6.5 38.974-3.528 12.689-8.1 25.035-11.891 37.637-5.576 18.525-10.361 39.709-3.834 58.632 3.107 9.017 7.793 17.467 10.583 26.592a62.922 62.922 0 0 1 2.537 12.261c.35 3.561.158 7.7 1.985 10.917 7.015 12.339 21.521 16.567 35.029 18.286 27.073.374 56.987-12.066 80.553-19.32 26.416-8.8 39.486-33.175 49.045-58.369-24.238 4.254-55.988-1.167-68.559-23.767zm-72.685 5.037c-4.316-4.737-8.161-12.032-5.775-18.643 2.726-7.541 8.818-10.3 15.489-13.858 4.545-2.419 8.434-5.071 10.8-9.835 2.318-4.66 3.3-9.822 6.105-14.219 1.486-2.325 4.589-1.2 4.865 1.321.829 7.517-2.921 16.075-7.352 22.016-3.754 5.027-9.552 7.588-14.8 10.695-3.174 1.88-7.484 4.09-7.446 8.414 0 .077.013.152.017.229 11.945 14.143 33.081 14.143 50.451 14.143-8.151 8.151-21.062 12.48-32.5 9.108-7.58-1.158-14.48-3.469-19.854-9.373zm48.816 58.638c-1.951 1.368-5.037.64-7.157.024a25.641 25.641 0 0 1-7.558-3.73c-2.086-1.439-.859-5.1 1.8-4.269 2.2.691 4.454 1.257 6.682 1.83 1.853.478 3.716.3 5.533.741 2.668.645 2.671 4.018.7 5.403zm39.2-22.734a70.573 70.573 0 0 1-22.1 7.2c-13.2 2.015-32.539.728-42.131-10a2.183 2.183 0 0 1 2.109-3.622c6.985 1.971 13.084 5.219 20.493 5.873a60.384 60.384 0 0 0 21.184-1.58c6.537-1.772 12.218-5.182 18.545-7.308 3.777-1.267 8.12-5.243 12.073-4.505a1.127 1.127 0 0 1 .815 1.072c.461 4.442-7.316 10.969-10.988 12.869z" class="cls-4" data-name="Path 30" transform="translate(66.056 -74.778)"/>
                <path id="Path_31" d="M388.69 278.971a16.343 16.343 0 0 0-7.285 3.1q-.945 1.385-2.008 2.692a4.047 4.047 0 0 1-2.925 1.563 72.908 72.908 0 0 0-3.585 3.942c-3.292 3.878-5.607 9.579-10.024 12.282a2.465 2.465 0 0 1-3.592-1.462 11.171 11.171 0 0 1 .327-5.87c-.2-.027-.4-.051-.6-.084.549 2.969-2.46 6.668-5.677 5.374-14.745-5.92-20.725-19.745-16.938-34.712.428-1.678 3.218-1.83 3.538 0 1.038 5.9 2.51 11.214 5.7 16.308a22.145 22.145 0 0 0 4.232 4.866c-2.574-6.894-2.086-16.871-1.745-25.379a38.216 38.216 0 0 1-7.028-27.691c.185-1.375 2.419-1.29 2.679 0a46.573 46.573 0 0 0 7.3 17.086c-.674-5.684-.074-11.51.135-17.181-.239-.334-.462-.65-.654-.94-6.678-10.112-10.179-21.312-9.037-33.462.226-2.416 4.2-3.413 4.586-.62a67.381 67.381 0 0 0 1.691 8.265 68.969 68.969 0 0 1 1.011-10.354c-1.392-2.6-2.638-5.283-3.807-8A133.184 133.184 0 0 0 316.1 160.2c3.245 10.233 3.629 21.13 3.609 32.195 2.844 5.7 6.4 13.606 4.117 19.657a2.515 2.515 0 0 1-2.706 1.493c-1.048 31.909-8.8 63.915-27.99 91.251a39.4 39.4 0 0 0 6.6-4.363 39.4 39.4 0 0 1-6.6 4.363c-.644.917-1.267 1.843-1.937 2.753.67-.91 1.294-1.836 1.937-2.753-19.29 10.064-41.538-.034-59.875-9.664 12.571 22.6 44.322 28.024 68.561 23.775a78.91 78.91 0 0 0 6.452-1.4 80.62 80.62 0 0 1-6.452 1.4c-9.559 25.193-22.629 49.564-49.045 58.369-23.566 7.254-53.48 19.694-80.553 19.32 2.052.259 4.08.468 6.055.63a286.36 286.36 0 0 0 46.212-.347 362.64 362.64 0 0 0 45.6-6.308c11.766-2.456 22.258-5.27 31.487-13.38A184.713 184.713 0 0 0 331.413 343c6.655-9.67 13.238-19.2 20.078-28.681 2.611-3.615 8.164-.536 6.048 3.535-2.355 4.529-3.956 9.293-6.621 13.653q-2.33 3.821-4.714 7.6a5.412 5.412 0 0 1 .229 1.169c1.149 15.247 27.336 3.123 32.471-2.854 7.992-9.3 11.517-21.817 14.647-33.452 1.578-5.851 7.495-26.505-4.861-24.999zm1.193 12.72c-4.475 5.169-10.516 14.734-10.068 21.854.344 5.388.916 10.428-.879 15.661-3.6 10.479-14.691 12.942-24.4 11.463-3.059-.468-2.082-4.967.694-5.132 4.98-.3 12.918-3.093 15.334-8.006 2.348-4.778.731-9.067.93-13.987.4-10.044 7.174-20.335 15.092-26.133 2.636-1.934 5.197 2.083 3.297 4.279z" class="cls-3" data-name="Path 31" transform="translate(103.524 -49.918)"/>
                <path id="Path_32" d="M266.84 165.558c-.448-.859-.917-1.715-1.388-2.571 3.588 11.47 3.733 22.114-2.8 27.2a10.506 10.506 0 0 1-6.628 3.346c.58.792 1.176 1.57 1.806 2.328 3.342 4.02 7.743 8.12 9.707 12.976.65 1.614-1.2 2.884-2.6 2.6-10.607-2.18-20.193-17.208-24.176-26.43-.054-.118-.1-.239-.145-.357-6.109-6.645-12.1-16.032-17.316-24.755 4.215 9.994 6.985 20.513 11.5 30.392 5.718 12.507 14.8 21.665 26.181 29.193a2.344 2.344 0 0 1-1.8 4.266c-15.028-2.985-24.668-13.677-31.427-26.305a68.965 68.965 0 0 0-1.011 10.354 60.521 60.521 0 0 0 9.151 19.779 63.265 63.265 0 0 0 11.23 11.874c2.369 1.937 5.721 3.514 6.361 6.729a.835.835 0 0 1-.212.812c-6.968 5.735-18.859-6.557-23.118-12.436-.209 5.671-.809 11.5-.135 17.181a84.148 84.148 0 0 0 14.5 15.8c2.342 2.052-.121 6.082-3.009 5.172a28.981 28.981 0 0 1-14.448-10.361c-.34 8.508-.829 18.485 1.745 25.379 2.433 2.156 5.186 3.942 7.844 6.014a3.449 3.449 0 0 1 1.3 2.15c.2.034.4.057.6.084 1.749-5.843 7.046-11.817 10.465-15.516a54.633 54.633 0 0 1 2.244-2.284c4.074-6.783 6.823-14.539 9.9-21.783 4.114-9.7 8.12-19.576 10.738-29.8 5.333-20.81 5.073-41.653-5.059-61.031z" class="cls-2" data-name="Path 32" transform="translate(224.562 -50.662)"/>
                <path id="Path_33" d="M220.377 133.133c-.051-1.452-1.041-2.837-3.444-4.171-5.172-2.3-11.5-1.813-17.686.617a1.988 1.988 0 0 1-1.068 2.466c-11.193 4.424-18.946 16.156-21.652 28.084 10.846-12.309 28.118-20.311 43.85-26.996z" class="cls-5" data-name="Path 33" transform="translate(113.743 -127.473)"/>
                <path id="Path_34" d="M177.281 156.149a41.531 41.531 0 0 0-1.072 8.818c-.088 10.631 5.155 17.551 10.735 24.829A51.222 51.222 0 0 1 197 165.927a1.125 1.125 0 0 1-.566-1.1c.839-11.24 6.762-18.956 15.034-23.923 4.569-4.471 9.785-8.3 9.667-11.749-15.735 6.683-33.008 14.685-43.854 26.994z" class="cls-6" data-name="Path 34" transform="translate(112.989 -123.493)"/>
                <path id="Path_35" d="M369.475 221.021c-8.936-16.251-21.483-31.541-34.992-44.1-6.611-6.142-13.7-12.106-21.632-16.507l.233.3c4.811 6.459 12.154 14.815 13.377 22.979a1.85 1.85 0 0 1-3.066 1.782c-5.944-4.781-9.7-12.74-15.129-18.3-.977-1-1.981-1.978-2.979-2.962-26.848-20.062-58.861-33.971-93.728-27A37.49 37.49 0 0 0 195 145.367q-1.89 2.532-3.636 5.334a1.452 1.452 0 0 1-1.921.428A51.222 51.222 0 0 0 179.395 175a104.348 104.348 0 0 1 6.769 9.532c4.663 2.911 9.866 6.594 14.344 3.423-5-5.233-5.752-15.87-4.876-22.629 1.031-7.942 4.734-16.15 11.567-20.762 8.43-5.691 19.091-4.724 28.539-2.392a117.893 117.893 0 0 1 36.6 16.325c20.328 13.488 40.517 30.854 51.906 52.769 1.135 2.18 2.13 4.411 3.076 6.661 5.219 8.723 11.207 18.111 17.316 24.755-5.361-12.666-5.661-27.04-12.325-39.045a1.9 1.9 0 0 1 2.968-2.291c9.869 9.519 10.728 23.347 16.335 35.184a91.486 91.486 0 0 0 8.43 15.038 10.506 10.506 0 0 0 6.628-3.346c6.536-5.088 6.391-15.732 2.803-27.201z" class="cls-5" data-name="Path 35" transform="translate(120.539 -108.695)"/>
                <path id="Path_36" d="M279.294 156.2c-10.988-8.771-23.687-16.365-37.391-19.927-11.271-2.925-24.155-4.542-35.578-1.489-9.758 2.611-16.618 8.326-22.3 15.924a37.49 37.49 0 0 1 16.557-8.147c34.867-6.971 66.88 6.938 93.727 27a194.415 194.415 0 0 0-15.015-13.361z" class="cls-6" data-name="Path 36" transform="translate(131.514 -114.037)"/>
                <path id="Path_37" d="M218.6 233.906c-6.537 5.856-15.034 10.671-22.036 14.684q-5.072 2.91-10.264 5.41a15.661 15.661 0 0 1 8.936 3.275 14.568 14.568 0 0 1 1.523 1.419c10.066-5.737 20.507-13.325 21.841-24.788z" class="cls-7" data-name="Path 37" transform="translate(136.895 124.712)"/>
                <path id="Path_38" d="M214.717 233.653a47.8 47.8 0 0 1-3.474 3.43c-1.331 11.463-11.773 19.051-21.841 24.792 3.039 3.278 4.182 7.726 4.245 12.4 7.093-6.415 13.538-12.689 18.832-21.322a176.283 176.283 0 0 0 10.432-20.385q-4.094.593-8.194 1.085z" class="cls-8" data-name="Path 38" transform="translate(144.25 121.534)"/>
                <path id="Path_39" d="M191.955 289.363c-4.077 2.342-8.154 4.67-11.982 7.369-5 3.518-9.006 8.269-8.336 14.745a21.2 21.2 0 0 0 .849 4.037 99.3 99.3 0 0 1 10.543-15.476 689.714 689.714 0 0 1 8.926-10.675z" class="cls-4" data-name="Path 39" transform="translate(101.984 256.113)"/>
                <path id="Path_40" d="M104.913 216.091c2.679 3.184 7.18 6.324 9.936 10.031a82.865 82.865 0 0 0 7.019-5.789c.229-.212.448-.441.674-.657-4.229-3.433-7.541-8.761-10.294-12.841-.839-1.24-1.708-2.473-2.578-3.713-3.107 2.483-6.244 4.9-9.3 7.295 1.558 1.937 3.051 3.898 4.543 5.674z" class="cls-3" data-name="Path 40" transform="translate(-66.71 51.771)"/>
                <path id="Path_41" d="M93.949 209.931c.542 1.86 1.176 3.7 1.887 5.509h.007c6.486 5.374 10.546 12.312 20.166 9.549a38.8 38.8 0 0 0 6.594-2.621c-3.262-2.466-6.028-6.21-8.191-8.9a76.914 76.914 0 0 1-4.943-6.83 24.1 24.1 0 0 1-15.52 3.293z" class="cls-3" data-name="Path 41" transform="translate(-81.919 60.105)"/>
                <path id="Path_42" d="M147.345 181.784c-.044-.01-.077-.03-.115-.04-7.884-2.025-11.419 9.795-12.834 15.331a40.3 40.3 0 0 1-9.205 17.073c-9.822 10.9-25.6 18.828-30.379 33.519-2.278 7.005-1.631 14.542.485 21.8a24.1 24.1 0 0 0 15.52-3.292 36.547 36.547 0 0 1-5.374-12.356 1.179 1.179 0 0 1 1.715-1.317c3.807 2.086 6.9 5.56 9.768 9.118 3.059-2.4 6.2-4.812 9.3-7.295-1.617-2.3-3.231-4.623-4.606-7.045-1.341-2.362-3.73-4.774-2.554-7.571 2.19-5.219 11.426 6.557 12.555 8.07q.48.637.954 1.28a104.2 104.2 0 0 0 9.145-8.889c-.155-.387-.317-.772-.468-1.162-2.507-6.5-5.923-14.037-5.111-21.076.236-2.065 2.5-3.3 4.175-1.728a16.053 16.053 0 0 1 4.6 7.369c.954 2.8 1.87 5.782 2.888 8.764a49.332 49.332 0 0 0 4.3-8c6.036-13.283 3.853-30.637-4.759-42.553z" class="cls-4" data-name="Path 42" transform="translate(-83.268 .569)"/>
                <path id="Path_43" d="M129.852 236.013a206.354 206.354 0 0 0-5.485-29.4c-2.146-8.178-5.8-22.552-14.97-25.021 8.612 11.914 10.8 29.27 4.761 42.553a49.333 49.333 0 0 1-4.3 8c2.008 5.89 4.421 11.786 8.356 16.274 1.6 1.823 6.891 7.871 10.132 6.951a1.834 1.834 0 0 0 .836-.546 4.049 4.049 0 0 1 .711-1.2c1.707-4.346.225-15.209-.041-17.611z" class="cls-3" data-name="Path 43" transform="translate(-45.319 .76)"/>
                <path id="Path_44" d="M105.013 207.81c2.824 3.8 5.617 7.635 8.693 11.24 1.237 1.449 2.594 2.766 3.875 4.134 2.264-2.594 4.525-5.2 6.948-7.541-4.677-4.707-7.891-10.563-10.371-16.723a104.2 104.2 0 0 1-9.145 8.89z" class="cls-3" data-name="Path 44" transform="translate(-55.704 41.817)"/>
                <path id="Path_45" d="M299.768 306.921c-7.5-17.157-14.839-35.676-25.51-51.151-8.852-12.837-27.8-30.8-45.255-25.87-10.27 2.9-17.625 10.9-22.905 20.338a22.005 22.005 0 0 1 3.383-3.386 47.382 47.382 0 0 1 2.012 9.428c1.324-5.421 3.356-10.671 6.81-14.836a1.622 1.622 0 0 1 2.753 1.139c-.994 8.323-3.484 16.4-3.824 24.833a92.514 92.514 0 0 0 .135 10.152c2.662-13.393 10.5-32.579 20.577-25.025 20.476 15.018 22.619 41.815 27.784 65.33 9.064-3.922 19.1-7.9 29.135-4.138a183.129 183.129 0 0 0-28.893 16.648q3.695-1.7 7.5-3.161c7.874-3 21.3-6.955 32.353-5.688-1.941-4.902-3.939-9.781-6.055-14.613z" class="cls-8" data-name="Path 45" transform="translate(183.81 113.242)"/>
                <path id="Path_46" d="M237.071 246.735a38.718 38.718 0 0 1-.091-6.51c-5.041 9.276-10.186 18.5-14.691 28.017-7.089 14.98-12.581 30.406-17.548 46.185-4.441 14.1-8.825 28.222-12.891 42.438-1.863 6.52-3.592 13.073-5.364 19.617a66.732 66.732 0 0 1 8.589-5.048c9.441-41.986 27.434-82.241 43.243-122.378a3.455 3.455 0 0 1-1.247-2.321z" class="cls-7" data-name="Path 46" transform="translate(137.341 139.684)"/>
                <path id="Path_47" d="M251.922 243.772a47.386 47.386 0 0 0-2.012-9.428 22.008 22.008 0 0 0-3.383 3.386 102.679 102.679 0 0 0-9.161 23.8c-.7 2.672-3.444 2.837-5.088 1.462-15.809 40.137-33.8 80.391-43.243 122.378a100.675 100.675 0 0 1 22.231-7.665c9.108-35.982 19.32-72.15 21.568-109.2 1.422 7.113 9.96 12.8 14.229 8.538a12.062 12.062 0 0 0 2.557-3.9 72.135 72.135 0 0 1 .364-18.235 100.4 100.4 0 0 1 1.938-11.136z" class="cls-7" data-name="Path 47" transform="translate(143.38 125.75)"/>
                <path id="Path_48" d="M260.772 302.563c-1.216.526-2.416 1.048-3.6 1.557 1.179-.509 2.379-1.031 3.6-1.557-5.165-23.515-7.308-50.312-27.784-65.33-10.078-7.554-17.915 11.631-20.577 25.025a78.488 78.488 0 0 0 2.7 15.752c1.136 4.04-4.239 7.008-6.921 4.525a64.068 64.068 0 0 0 2.092 11.513l1.038 1.611q7.485 11.554 13.774 23.785c2.453 4.774 4.919 9.549 7.453 14.283a61.147 61.147 0 0 1 9.6-7.851 122.7 122.7 0 0 1 18.865-10.8 183.132 183.132 0 0 1 28.893-16.648c-10.035-3.766-20.069.213-29.133 4.135z" class="cls-7" data-name="Path 48" transform="translate(188.764 128.551)"/>
                <path id="Path_49" d="M237.05 260.085a37.753 37.753 0 0 1-3.063-10.961 12.062 12.062 0 0 1-2.557 3.9c-4.269 4.266-12.807-1.425-14.229-8.538-2.247 37.054-12.46 73.221-21.568 109.2 3.76-.876 7.568-1.624 11.4-2.308q13.853-2.476 27.744-4.811a113.351 113.351 0 0 1-.067-29.486c.815-6.722 2.541-16.682 6.975-23.1-2.22-4.451-4.475-8.889-6.907-13.228-3.545-6.318-9.579-13.289-10.428-20.614a1.393 1.393 0 0 1 1.759-1.338c6.109 1.974 10.445 8.616 13.926 14.037a64.065 64.065 0 0 1-2.092-11.513 3.849 3.849 0 0 1-.893-1.24z" class="cls-8" data-name="Path 49" transform="translate(159.014 149.769)"/>
                <path id="Path_50" d="M183.288 401.851c2.086-9.468 1.183-19.384-3.612-28.013-1.041 0-3.609-.758-5.469-.047-.044.2-.084.4-.131.6a75.519 75.519 0 0 1-3.551 10.786q1.046-1.39 2.035-2.8-.986 1.415-2.035 2.8a120.674 120.674 0 0 1-11.065 20.449 3.847 3.847 0 0 1-7.032-1.533 90.846 90.846 0 0 1-19.711 12.433c8.134-52.876 16.254-108.226 8.393-161.342a34.7 34.7 0 0 1-5.549.765 34.7 34.7 0 0 0 5.549-.765 265.84 265.84 0 0 0-1.28-7.945c.472 2.621.89 5.226 1.28 7.858 23.465-3.959 51.738-23.717 38.567-43.476-8.258-11.928-17.7-.2-24.125 14.222-1.277 3.905-2.466 7.834-3.922 11.692a1.251 1.251 0 0 1-.728.745c-.856 2.787-1.553 5.445-2.055 7.827-3.086-7.369-8.585-13.013-17.555-11.732-7.881 1.314-13.336 5.088-18.609 11.254 5.138 5.57 11.015 10.418 17.457 13.393 2.153.994.509 3.9-1.5 3.558a38.274 38.274 0 0 1-12.113-4.31c2.268 14.866-4.239 32.545-8.885 45.6-7.258 20.392-12.026 40.747-12.585 62.5-.293 11.547.078 23.091.852 34.614.576 8.528.465 17.154 1.146 25.652.354 4.438 1.921 7.43 4.444 9.36 29.337 1.611 61.276-13.659 81.789-34.145z" class="cls-4" data-name="Path 50" transform="translate(-79.533 60.256)"/>
                <path id="Path_51" d="M196.859 272.73c-2.578-7.453-6.719-14.721-9.6-22.211-1.91 1.28-3.811 2.571-5.728 3.834-3.464 2.285-6.793 4.953-10.489 6.607a70.2 70.2 0 0 1-1.439 9.01c1.86-.711 4.427.047 5.469.047 4.795 8.629 5.7 18.545 3.612 28.013a49.125 49.125 0 0 1-5.034 13.255 49.125 49.125 0 0 0 5.034-13.255c-20.513 20.486-52.452 35.756-81.79 34.142 2.611 2 6.254 2.857 10.668 2.979a105.666 105.666 0 0 0 25.86-2.8 367.484 367.484 0 0 0 73.336-24.438c-2.87-11.806-5.926-23.7-9.899-35.183z" class="cls-3" data-name="Path 51" transform="translate(-74.932 164.075)"/>
                <path id="Path_52" d="M188.148 195.428a25.187 25.187 0 0 0-15.654 5.182c-4.448 3.417-6.52 9.562-9.529 14.141-4.552 6.931-10.708 12.487-18.67 12.794a4.2 4.2 0 0 1-.2.478c-1.513 2.793-4.562 4.165-6.527 6.668a40.257 40.257 0 0 0-5.357 9.044c-1.23 2.9-2.247 5.853-3.218 8.818 6.429-14.421 15.867-26.157 24.125-14.229 13.171 19.758-15.1 39.5-38.567 43.462 7.861 53.119-.259 108.58-8.393 161.457a90.845 90.845 0 0 0 19.711-12.433 3.828 3.828 0 0 1 .505-2.285c11.507-20.884 10.92-47.617 8.838-70.745-1.078-11.961-2.517-23.832-3.083-35.834-.421-8.966-1.651-19.368.768-28.337a18.232 18.232 0 0 1-9.259-4.461c-1.483-1.415-.421-4.316 1.729-4.175 8.039.529 14.522 4 21.328-2.382 5.411-5.071 8.521-12.133 10.914-19.037 4.431-12.794 5.843-28.886 13.636-40.211 4.289-6.227 12.366-9.812 18.39-14.044 2.557-1.8 7.359-4.539 8.2-7.868.997-3.94-7.008-5.986-9.687-6.003z" class="cls-3" data-name="Path 52" transform="translate(-52.979 33.54)"/>
                <path id="Path_53" d="M126.119 237.246c8.969-1.28 14.468 4.363 17.555 11.732.5-2.382 1.2-5.044 2.055-7.831a1.137 1.137 0 0 1-1.523-.745c-2.867-8.491-.425-19.02 2.888-27.036a42.52 42.52 0 0 1 4-7.5c-.249-.118-.5-.246-.741-.371-7.649 12.164-22.545 24.233-35.578 28.98a28.6 28.6 0 0 1-17.639.536A102.13 102.13 0 0 0 107.51 248.5c5.273-6.167 10.728-9.94 18.609-11.254z" class="cls-3" data-name="Path 53" transform="translate(-74.361 57.387)"/>
                <path id="Path_54" d="M192.03 257.694c3.049-6.944 2.18-13.7-6.4-14.91-4.555-.647-9.721-.182-14.239-1.466-1.722 1.853-2.379 4.714-2.79 7.133-.984 5.782-.627 14.293 3.74 18.785 7.124 7.319 16.801-2.964 19.689-9.542z" class="cls-9" data-name="Path 54" transform="translate(93.901 142.276)"/>
                <path id="Path_55" d="M128.233 274.785a40.339 40.339 0 0 0 4.141 4.208c2.052 1.718 6.756 6.038 5.765.623a83.031 83.031 0 0 0-2.072-8.377 912.762 912.762 0 0 1-7.834 3.546z" class="cls-4" data-name="Path 55" transform="translate(-.686 213.172)"/>
                <path id="Path_56" d="M176.467 235.51a27.96 27.96 0 0 1-1.051 4.272 35.239 35.239 0 0 1-2.955 6.877 30.16 30.16 0 0 1 14.249 4.39 13.059 13.059 0 0 1 5.543 8.592q1.481-.965 3.11-1.921a.8.8 0 0 1 .189-1.243c.317-.206.64-.4.96-.6a50.965 50.965 0 0 0 5.664-17.838 92.452 92.452 0 0 1-25.709-2.529z" class="cls-4" data-name="Path 56" transform="translate(104.109 128.512)"/>
                <path id="Path_57" d="M190.487 234.884c-5.519-.125-11.17-.31-16.8-.8a19.967 19.967 0 0 1-.04 6.594 92.451 92.451 0 0 0 25.709 2.534 36.06 36.06 0 0 0 .2-3.615 36.06 36.06 0 0 1-.2 3.615 50.965 50.965 0 0 1-5.664 17.838c9.573-6.021 19.607-11.311 29.065-17.541q6.788-4.473 13.393-9.229c.431-.307.863-.633 1.294-.957a442.186 442.186 0 0 1-46.957 1.561z" class="cls-3" data-name="Path 57" transform="translate(106.927 123.34)"/>
                <path id="Path_58" d="M167.588 238.474a34.466 34.466 0 0 1 2.76-4.559 42.119 42.119 0 0 1-8.009.974 31.326 31.326 0 0 1 5.249 3.585z" class="cls-4" data-name="Path 58" transform="translate(80.124 124.733)"/>
                <path id="Path_59" d="M176.359 271.54c-2.847-.192-6.749.394-8.777-1.917a1.191 1.191 0 0 1 0-1.651c2.113-2.342 5.883-1.469 8.777-1.584 1.7-.064 3.366-.249 5.031-.468a86.963 86.963 0 0 1-7.581-5.428c-3-2.322-6.163-4.512-7.49-8.2a2.178 2.178 0 0 1 2.665-2.662c3.764 1.253 6.55 4.384 9.758 6.611 1.587 1.1 3.235 2.1 4.882 3.1a33.159 33.159 0 0 1 .667-4.336c.057-.266.125-.529.192-.8-4.906-5.7-8.814-12.689-15.675-16.308-8.5-4.485-9.768 7.48-10.24 13.778-.516 6.877-1.27 18.229 6.436 21.753 6.624 3.026 13.141-.125 19.708-1.1-.074-.28-.148-.556-.216-.836a43.772 43.772 0 0 1-8.137.048z" class="cls-9" data-name="Path 59" transform="translate(70.483 131.854)"/>
                <path id="Path_60" d="M181.5 242.825a33.213 33.213 0 0 0 2.332-8.043 88.7 88.7 0 0 1-10.307-2.065c-1.857 2.591-4.754 4.929-6.5 7.116-.185.232-.361.478-.539.718 5.132-1.958 10.24-.078 15.014 2.274z" class="cls-8" data-name="Path 60" transform="translate(89.952 121.895)"/>
                <path id="Path_61" d="M169.282 235.617c-1.344 1.779-2.564 3.723-3.976 5.472a42.782 42.782 0 0 1 6.645 10.4 8.495 8.495 0 0 1 6.392-2.615c.532-3.548 3.77-6.426 5.361-9.643.219-.445.4-.893.593-1.344-4.775-2.348-9.883-4.228-15.015-2.27z" class="cls-7" data-name="Path 61" transform="translate(87.156 126.829)"/>
                <path id="Path_62" d="M208.835 243.457c-8.811-3.956-20.2 3.649-29.213 6.88q-.111 1.006-.3 2c2.261.371 4.532.721 6.779.97 2.985.333 6.1.29 8.956 1.26a2.186 2.186 0 0 1 .519 3.959c-4.859 2.733-11.678 3.346-17.686 2.851 2.258 1.54 4.515 3.09 6.833 4.529 2.237 1.385 4.869 2.547 6.631 4.552a1.637 1.637 0 0 1-.714 2.7c-3.481 1.169-7.723 0-11.581-1.806a33.351 33.351 0 0 0 11.254 5.657c9.276 2.369 15.018-3.167 18.04-11.746 1.607-4.558 7.22-18.78.482-21.806z" class="cls-9" data-name="Path 62" transform="translate(116.98 144.704)"/>
                <path id="Path_63" d="M223.55 233.9c-9.1-.088-18.363.516-26.565 4.913q-9.689 5.2-19.037 11c-14.748 9.179-28.862 19.263-43.105 29.187q-4.513 3.144-9.067 6.237c7.426 9.482 11.783 23.077 15.5 33.516a273.133 273.133 0 0 1 9.04 31.262 16.871 16.871 0 0 0 4.721 3.511 200.43 200.43 0 0 0-7.74-55.552 40.936 40.936 0 0 0-3.646-4.215 40.936 40.936 0 0 1 3.646 4.215c-.27-.93-.516-1.87-.8-2.793.286.923.532 1.863.8 2.793 6.607 8.754 9.674 19.846 12.511 30.9 8.589-7.713 16.5-16.7 22-26.986-7.908-15.732-2.359-39.183 7.783-51.842 1.5-1.87 5 .145 4.087 2.379a70.7 70.7 0 0 0-4.491 17.211v17.006c9.96-11.385 17.076-24.192 25.614-37-1.378 7.794-3.049 15.439-4.774 23.033a1.985 1.985 0 0 1 .371 1.156c.2 13.077-4.111 27.158-6.4 40.019-2.254 12.709-3.831 25.493-5.27 38.314-1.115 9.947-2.716 19.863-3.187 29.87-.431 9.131.6 17.43 2.022 26.369a5.514 5.514 0 0 1 .071.876q3.068 2.335 6.338 4.434c-2.594-11-1.011-23.731-.286-34.847a406.101 406.101 0 0 1 4.259-37.926c2.416-15.061 4.892-30.116 7.618-45.127 2.214-12.187 4.33-25.827 9.431-37.4.135-1.843.33-3.649.579-5.381.974-6.776 4.084-14.987 9.667-18.535-3.89-.267-7.785-.557-11.69-.597z" class="cls-7" data-name="Path 63" transform="translate(-6.508 124.678)"/>
                <path id="Path_64" d="M174.055 275.568v-17.006c-1.691 12.389-.586 24.988.411 37.637a1.85 1.85 0 0 1-3.134 1.3 27.665 27.665 0 0 1-4.657-6.685c-5.5 10.284-13.414 19.273-22 26.986.775 3.016 1.533 6.028 2.342 9-.809-2.968-1.567-5.981-2.342-9-.169.148-.334.307-.5.458.168-.152.334-.31.5-.458-2.837-11.059-5.9-22.151-12.511-30.9a200.429 200.429 0 0 1 7.74 55.552 16.871 16.871 0 0 1-4.721-3.511 253.487 253.487 0 0 1 1.56 7.349 71.15 71.15 0 0 1 .859 5.337c.172-.2.347-.387.512-.58 5.047-5.789 11.173-10.644 17-15.624 5.893-5.034 11.982-10.058 17.312-15.7.62-.66 1.247-1.422 1.887-2.227.836-5.071 1.772-10.132 2.871-15.179 2.854-13.168 6.274-29.489 14.361-40.565a2.1 2.1 0 0 1 3.356-.145c1.725-7.595 3.4-15.24 4.774-23.033-8.544 12.801-15.66 25.608-25.62 36.994z" class="cls-8" data-name="Path 64" transform="translate(8.626 135.758)"/>
                <path id="Path_65" d="M177.453 257.41a19.5 19.5 0 0 1-8.477-5.94c-.394 2.2-.788 4.38-1.142 6.523q-3.573 21.561-6.7 43.186c-1.752 12-3.3 23.937-4.1 36.043-.745 11.244-.34 22.417-.7 33.637a7.054 7.054 0 0 1-3.487 6.075 9.645 9.645 0 0 1-1.075.468 114.344 114.344 0 0 0 12.989 5.5c-.561-42.162 5.845-84.149 12.692-125.492z" class="cls-8" data-name="Path 65" transform="translate(55.102 166.329)"/>
                <path id="Path_66" d="M195.478 254.4c-8.939 1-19.148 1.853-27.134-1.169-6.847 41.343-13.252 83.329-12.686 125.494a128.067 128.067 0 0 0 18.434 5.031 5.306 5.306 0 0 1-.371-2.059 412.155 412.155 0 0 1 6.089-66.169c3.558-20.197 7.153-42.244 15.668-61.128z" class="cls-7" data-name="Path 66" transform="translate(64.212 170.506)"/>
                <path id="Path_67" d="M269.9 250.669a58.226 58.226 0 0 1-2.453 8.683c-3.814 10.364-12.335 19.432-24.374 18.138-10.7-1.156-19.745-7.056-27.1-14.61-6.429 4.043-14.182 5.31-20.523.317a19.323 19.323 0 0 1-4.569-5.3c-8.114 4.993-22.006 6.129-29.257 1.311a20.262 20.262 0 0 1-3.282-2.746c-.482 2.746-.977 5.465-1.466 8.157a19.505 19.505 0 0 0 8.477 5.94l1.355-8.144-1.355 8.144c7.986 3.022 18.195 2.173 27.134 1.169.33-.728.65-1.466.994-2.18 1.166-2.443 5.435-1.321 5.179 1.405l-.01.077c.263-.027.529-.054.788-.077-.259.023-.526.051-.788.077-.034.361-.084.718-.121 1.078 3.639 3.123 9.141.708 13.754-1.742 1.543-.819 2.989-1.641 4.232-2.261-1.243.62-2.689 1.442-4.232 2.261 10.614 12.666 25.294 20.479 42.219 17.036q.232-1.819.435-3.646-.2 1.825-.435 3.646c-3.117 24.506-9.963 48.486-13.869 73.053 2.025-7.77 4.232-15.5 6.523-23.2 4.151-13.929 8.545-27.781 13.013-41.606a391.016 391.016 0 0 1 19.56-49.729 26.2 26.2 0 0 1-9.829 4.749z" class="cls-8" data-name="Path 67" transform="translate(67.196 153.181)"/>
                <path id="Path_68" d="M196.167 253.176c-4.613 2.45-10.115 4.866-13.754 1.742-.633 6.146-1.648 12.268-2.861 18.377a9.749 9.749 0 0 1 3.481 1.018c4.66 2.315 9.121 10.044 4.35 14.468-3.251 3.019-7.74 2.47-11.261.361-2 8.882-4.01 17.76-5.374 26.672-1.793 11.716-3.13 23.509-4.08 35.335a6.025 6.025 0 0 1 1.557-.013 10.651 10.651 0 0 1 6.035 2.773 11.75 11.75 0 0 1 3.784 7.49c.462 3.5-3.562 7.521-6.981 8a11.492 11.492 0 0 1-5.523-.472c-.2 4.3-.371 8.606-.472 12.912a4.957 4.957 0 0 1-1.381 3.44 135.806 135.806 0 0 0 18.208 1.1 22.6 22.6 0 0 1 4.465-7.339c6.789-7.4 16.487-11.493 25.163-16.234 2.965-1.614 6.287-3.568 9.765-5.347.334-4.694 2.089-9.8 3.059-13.548.054-.212.118-.421.172-.637 3.905-24.566 10.752-48.547 13.869-73.053-16.926 3.434-31.607-4.379-42.221-17.045z" class="cls-7" data-name="Path 68" transform="translate(83.318 170.371)"/>
                <path id="Path_69" d="M237.15 156.763a83.944 83.944 0 0 1 16.17 5.509 154.634 154.634 0 0 1 23.246 12.628 122.461 122.461 0 0 0-19.175-18.882c-2.766-1.051-5.593-1.964-8.37-2.857-8.073-2.6-15.884-5.59-24.425-6.385-13.212-1.233-26.221.4-31.656 11.807a8.165 8.165 0 0 0 2.207-3.383 8.165 8.165 0 0 1-2.207 3.383 23.623 23.623 0 0 0-1.213 3.13c4.609 5.037 11.638 1.8 17.652.6.67-.094 1.344-.206 2.018-.327 5.648-7.201 15.982-7.376 25.753-5.223z" class="cls-2" data-name="Path 69" transform="translate(149.759 -82.559)"/>
                <path id="Path_70" d="M233.387 151.735c3.164.236 6.341.617 9.492 1.139a111.293 111.293 0 0 0-6.166-3.319c-10.139-4.993-23.239-10.668-34.867-9.343-8.457.964-11.729 8.231-13.663 15.557-1.651 6.257-.522 12.514-1.321 18.65a11.939 11.939 0 0 0 11.106 3.127c-.459-18.732 18.132-27.095 35.419-25.811z" class="cls-2" data-name="Path 70" transform="translate(138.232 -97.754)"/>
                <path id="Path_71" d="M206.544 159.563a41.849 41.849 0 0 1-13.121-13.963c-15.375 1-22.076 16.311-25.389 29.883a61.8 61.8 0 0 0-1.237 6.894 287.833 287.833 0 0 1 5.057-6.773c4.438-5.738 8.912-10.873 16.086-12.841a2.88 2.88 0 0 1 2.433.307 28.806 28.806 0 0 1 16.171-3.507z" class="cls-5" data-name="Path 71" transform="translate(90.691 -84.53)"/>
                <path id="Path_72" d="M232.949 356.81q-2.841-.076-5.647-.148 2.805.071 5.647.148c52.833 1.419 113.843 2.743 152.312-35.726 14.091-15.375-2.958-38.823-15.843-57.884-16.15 2.3-32.026 5.934-44.045 18.1 3 4.811 6.281 9.391 9.478 14.047 8.289-.606 16.541-.212 24.823 2.426a2.792 2.792 0 0 1-.741 5.458c-7.143.361-14.259 1.156-21.362 2.21a4.524 4.524 0 0 1-4.65.724c-18.967 3.107-37.8 7.827-56.633 10.89-14.192 2.3-31.16 3.851-43.91 10.961-11.867 6.618-20.991 15.762-29.84 25.934-14.519 16.7-28.775 33.681-29.958 56.583-.273 5.233-1.213 12.511 1.038 17.615a116.766 116.766 0 0 1 9.573-21.679c33.524 18.77 41.772-24.379 49.758-49.659z" class="cls-4" data-name="Path 72" transform="translate(103.375 194.122)"/>
                <path id="Path_73" d="M403.193 296.96c-4.434-11.722-8.6-23.549-12.972-35.295a39.166 39.166 0 0 0-13.555-1.739 87.892 87.892 0 0 0-22.639 5.041 113.276 113.276 0 0 0-33.108 18.427c.505.9 1 1.813 1.523 2.712.61 1.058 1.257 2.089 1.9 3.123 12.019-12.164 27.9-15.8 44.045-18.1 4.815-.681 9.65-1.247 14.418-1.884-4.768.637-9.6 1.2-14.418 1.884 12.885 19.061 29.934 42.509 15.843 57.883-38.469 38.469-99.479 37.145-152.312 35.726-7.986 25.281-16.234 68.43-49.76 49.659a116.766 116.766 0 0 0-9.573 21.679c.135.3.276.6.435.889 2.062 3.764 9.64-7.9 11.187-10.112 1.587-2.278 4.478-3.366 7.029-1.846 7.43 4.431 15.1 10.887 23.438 13.434 10.361 3.174 16.15-4.266 21.039-12.437 6.446-10.779 15.638-27.34 14.2-40.989a75.838 75.838 0 0 1-11.6-5.3c-4.283-2.453-1.4-9.256 3.343-7.925 38.509 10.8 81.749 14.977 120.643 3.366 15.385-4.6 33.8-11.369 44.487-24.031 12.682-15.019 2.425-38.268-3.593-54.165z" class="cls-3" data-name="Path 73" transform="translate(104.406 186.189)"/>
                <path id="Path_74" d="M182.673 219.884c5.243-3.107 11.042-5.667 14.8-10.695 4.431-5.94 8.181-14.5 7.352-22.016-.276-2.52-3.38-3.646-4.865-1.321-2.81 4.4-3.787 9.559-6.105 14.219-2.369 4.764-6.257 7.416-10.8 9.835-6.671 3.555-12.763 6.318-15.489 13.858-2.386 6.611 1.459 13.906 5.775 18.643 5.522 6.065 12.652 8.343 20.473 9.468 2.217.32 4.087-2.81 1.671-3.962a73.012 73.012 0 0 1-15.4-9.9 12.6 12.6 0 0 1-4.845-9.714c-.05-4.324 4.26-6.535 7.433-8.415z" class="cls-10" data-name="Path 74" transform="translate(90.757 7.848)"/>
                <path id="Path_75" d="M228.343 246.443c-2.776.165-3.754 4.663-.694 5.132 9.714 1.479 20.81-.984 24.4-11.463 1.8-5.233 1.223-10.273.879-15.661-.448-7.12 5.593-16.685 10.068-21.854 1.9-2.2-.66-6.213-3.3-4.279-7.918 5.8-14.687 16.089-15.092 26.133-.2 4.919 1.419 9.209-.93 13.987-2.413 4.912-10.351 7.705-15.331 8.005z" class="cls-10" data-name="Path 75" transform="translate(230.406 39.176)"/>
                <path id="Path_76" d="M261.141 155.024a117.894 117.894 0 0 0-36.6-16.325c-9.448-2.332-20.109-3.3-28.539 2.392-6.833 4.613-10.536 12.821-11.567 20.762-.9 6.951-.091 18.026 5.3 23.077a1.964 1.964 0 0 0 3.252-.859c1.479-6.833-.162-13.835 1.688-20.833 1.934-7.325 5.206-14.593 13.663-15.557 11.628-1.324 24.728 4.35 34.867 9.343 2.1 1.034 4.144 2.156 6.166 3.319-3.15-.522-6.328-.9-9.492-1.139-18.131-1.348-37.714 7.908-35.227 28.62.259 2.15 3.73 3.12 4.151.563 2.918-17.871 18.225-20.4 33.812-18.946 8.542.8 16.352 3.787 24.425 6.385 2.776.893 5.6 1.806 8.37 2.857a122.457 122.457 0 0 1 19.175 18.882 154.635 154.635 0 0 0-23.246-12.629c-12.78-5.812-38.011-13.552-44.625 4.636-.536 1.479 1.415 2.261 2.419 1.408 12.386-10.546 31.177-1.779 43.422 4.454a243.917 243.917 0 0 1 33.583 21.248c2.453 5.388 4.522 10.964 6.479 16.6 6.759 19.432 17.215 40.619 39.389 45.022a2.344 2.344 0 0 0 1.8-4.266c-11.385-7.527-20.463-16.685-26.181-29.193-5.536-12.1-8.41-25.183-14.58-37.054-11.387-21.913-31.576-39.279-51.904-52.767z" class="cls-10" data-name="Path 76" transform="translate(131.736 -105.225)"/>
                <path id="Path_77" d="M261.6 223.474c1.4.286 3.251-.984 2.6-2.6-1.964-4.855-6.365-8.956-9.707-12.976-4.333-5.206-7.359-11.288-10.236-17.366-5.607-11.837-6.466-25.665-16.335-35.184a1.9 1.9 0 0 0-2.968 2.291c6.729 12.117 6.961 26.649 12.47 39.4 3.984 9.227 13.57 24.255 24.176 26.435z" class="cls-10" data-name="Path 77" transform="translate(227.894 -62.702)"/>
                <path id="Path_78" d="M255.416 220.3a.835.835 0 0 0 .212-.812c-.64-3.214-3.993-4.791-6.362-6.729a63.265 63.265 0 0 1-11.23-11.874c-5.829-8-9.505-18.283-10.843-28.044-.384-2.793-4.36-1.8-4.586.62-1.142 12.15 2.359 23.35 9.037 33.462 3.539 5.358 16.41 19.439 23.772 13.377z" class="cls-10" data-name="Path 78" transform="translate(222.424 -23.978)"/>
                <path id="Path_79" d="M247.055 215.661c-10.287-9.033-19.02-19.041-21.807-32.882-.26-1.29-2.493-1.375-2.679 0-2.106 15.53 5.691 33.081 21.477 38.054 2.887.91 5.354-3.12 3.009-5.172z" class="cls-10" data-name="Path 79" transform="translate(222.035 1.201)"/>
                <path id="Path_80" d="M230.958 208.776c-3.194-5.095-4.667-10.408-5.7-16.308-.32-1.83-3.11-1.678-3.538 0-3.787 14.967 2.193 28.792 16.938 34.712 4.094 1.644 7.878-4.8 4.38-7.524-4.394-3.423-9.051-6.041-12.08-10.88z" class="cls-10" data-name="Path 80" transform="translate(218.188 23.41)"/>
                <path id="Path_81" d="M198.823 221.72c-7.409-.654-13.508-3.9-20.493-5.873a2.183 2.183 0 0 0-2.109 3.622c9.593 10.728 28.927 12.015 42.131 10a70.573 70.573 0 0 0 22.1-7.2c3.673-1.9 11.446-8.427 10.988-12.875a1.127 1.127 0 0 0-.815-1.071c-3.952-.738-8.3 3.238-12.073 4.5-6.328 2.126-12.009 5.536-18.545 7.308a60.384 60.384 0 0 1-21.184 1.589z" class="cls-10" data-name="Path 81" transform="translate(111.654 63.889)"/>
                <path id="Path_82" d="M188.1 218.7c-2.227-.573-4.485-1.139-6.682-1.83-2.655-.832-3.882 2.83-1.8 4.269a25.641 25.641 0 0 0 7.558 3.73c2.119.617 5.206 1.344 7.157-.024 1.971-1.385 1.968-4.758-.7-5.4-1.82-.445-3.684-.269-5.533-.745z" class="cls-10" data-name="Path 82" transform="translate(118.573 84.052)"/>
                <path id="Path_83" d="M241.854 167.389c-14.428-7.1-33.56-3.666-43.22 9.879-2.6 3.646 2.52 8.68 6.159 6.159 10.813-7.49 20.26-10.139 33.361-7.264 5.506 1.206 10.5 5.243 14.179 9.3 5.047 5.556 4 12.3 6.709 18.626.8 1.87 3.3.98 3.861-.505 2.433-6.456-1.776-15.024-4.673-20.769-3.424-6.803-9.641-12.107-16.376-15.426z" class="cls-10" data-name="Path 83" transform="translate(164.443 -41.441)"/>
                <path id="Path_84" d="M580.13 525.215c-7.837-16.389-14.758-33.071-26.716-47.01-10.125-11.8-25.965-22.026-41.966-22.4 8.275-9.047 15.176-19.5 21.948-29.634 6.543 10.56 24.348 9.515 35.571 4.185 18.252-8.67 24.253-28.654 29.021-46.751 3.41-12.955 6.463-34.169-11.234-37.616a16.4 16.4 0 0 0-4.734-.212c1.135-2.675 2.227-5.364 3.379-7.986a277.727 277.727 0 0 0 11.48-29.89c6.574-21.258 6.109-43.287-2.392-63.925-8.036-19.5-22.3-35.847-36.841-50.787a122.335 122.335 0 0 0-24.122-18.989c-7.49-4.555-16.3-6.618-23.866-10.961a100.84 100.84 0 0 0-4.283-3.511c-12.982-9.99-27.575-17.845-43.638-21.406-22.946-5.091-59.757.307-61.94 29.648-.1 1.392 1.826 1.732 2.487.674 6.409-10.24 14-18.067 25.935-21.258 11.422-3.053 24.307-1.435 35.578 1.489 13.7 3.561 26.4 11.156 37.391 19.927a196.582 196.582 0 0 1 18 16.322c5.425 5.556 9.185 13.515 15.129 18.3a1.85 1.85 0 0 0 3.066-1.782c-1.223-8.164-8.565-16.52-13.377-22.979l-.232-.3c7.932 4.4 15.021 10.364 21.632 16.507 14.219 13.218 27.383 29.462 36.38 46.67 10.132 19.378 10.391 40.221 5.064 61.017-2.618 10.226-6.624 20.105-10.738 29.8-3.073 7.244-5.822 15-9.9 21.784a54.633 54.633 0 0 0-2.244 2.284c-4.593 4.97-12.588 14.05-10.792 21.386a2.465 2.465 0 0 0 3.592 1.462c4.417-2.7 6.732-8.4 10.024-12.282a72.908 72.908 0 0 1 3.585-3.942 4.048 4.048 0 0 0 2.925-1.563q1.066-1.3 2.008-2.692a16.342 16.342 0 0 1 7.285-3.1c12.356-1.506 6.439 19.148 4.862 25.008-3.13 11.635-6.655 24.152-14.647 33.452-5.135 5.977-31.322 18.1-32.471 2.854a5.41 5.41 0 0 0-.229-1.169q2.386-3.786 4.714-7.6c2.665-4.36 4.266-9.124 6.621-13.653 2.116-4.07-3.437-7.15-6.048-3.535-6.84 9.478-13.424 19.01-20.078 28.681a184.71 184.71 0 0 1-29.85 34.193c-9.229 8.11-19.721 10.924-31.487 13.38a362.641 362.641 0 0 1-45.6 6.308 286.363 286.363 0 0 1-46.212.347c-14.987-1.247-33-4.7-41.084-18.916-1.826-3.214-1.634-7.355-1.985-10.917a62.922 62.922 0 0 0-2.537-12.261c-2.79-9.124-7.477-17.575-10.583-26.592-6.527-18.923-1.742-40.106 3.834-58.631 3.791-12.6 8.363-24.947 11.891-37.637 3.568-12.838 4.694-25.84 6.5-38.974a73.814 73.814 0 0 1 10.779-29.2c6.887-5.708 13.5-9.087 23.01-8.518 10.341.62 13.363 8.579 15.917 17.164 1.088 3.666 7.15 4.188 7.932 0 2.439-13.036-6.547-25.793-20.018-26.989a35.658 35.658 0 0 0-17.888 3.568c3.787-5.923 8.023-11.537 13.424-15.59 2.638-1.974 1.216-6.567-2.355-5.587-7.173 1.968-11.648 7.1-16.086 12.841a285.767 285.767 0 0 0-5.057 6.773 61.79 61.79 0 0 1 1.237-6.894c3.312-13.572 10.014-28.879 25.389-29.884a42.1 42.1 0 0 0 21.2 18.215c1.472.569 2.645-1.321 1.948-2.53-7.076-12.248-18.188-19.839-18.064-35.278.118-14.465 8.75-31.383 22.723-36.9 1.668-.657 1.634-3.558-.458-3.383-9.037.748-15.135 3.332-21.062 10.344-6.3 7.45-9.266 17.043-10.732 26.524a34.548 34.548 0 0 0 1.594 16.753c-23.138-7.005-39.783 40.78-34.806 57.88a7.024 7.024 0 0 0 .3.792c-8 12.908-9.61 27.272-11.389 42.125-4.646 38.769-27.373 73.534-23.054 113.577 1.991 18.434 14.394 33.657 16.473 52.132 1.459 12.962 10.749 22.6 22.016 28.462-12.807-1.253-25.817-2.652-38.607-2.537-16.79.155-30.3 7.851-44.21 16.375-14.745 9.044-28.994 18.906-43.243 28.7-7.231 4.97-14.384 10.054-21.622 15.018-2.059 1.415-4.367 2.753-6.631 4.175-.128-4.451-.451-8.868-.825-13.134-1.1-12.406-2.8-24.893-4.963-37.155-1.186-6.705-1.924-13.5-2.463-20.287-.364-4.529-.27-9.071-.991-13.512a22.448 22.448 0 0 0 6.19-1.547c7.831-3.285 12.541-10.786 15.981-18.2 3.909-8.417 6.348-17.45 8.858-26.356 1.944-6.891 3.376-16.315 8.838-21.416 7-6.543 16.254-10.112 23.01-17.083 7.312-7.551 3.386-15.729-4.117-21.089-9.91-7.076-24.307-2.894-32.616 4.491-4.828 4.3-7.409 10.354-10.668 15.786a20.483 20.483 0 0 1-7.5 7.692 77.844 77.844 0 0 0 .024-10.523c-.468-10.294-2.493-20.52-4.906-30.51-3.848-15.924-18.222-47.8-38.482-31.541-5.27 4.229-7.729 11.9-9.424 18.121-2.177 8.009-7.025 13.683-13.043 19.186-10.866 9.94-22.447 18.188-27.548 32.633-5.536 15.668 2.392 34.045 10.856 47.007 4.785 7.329 10.7 14.691 17.8 20.2-2.382 7.719-3.845 15.732-6.594 23.387-3.6 10-7.716 19.8-11.284 29.816-7.13 20.014-10.381 40.6-10.769 61.822-.2 10.654.4 21.322 1.152 31.946.64 9.054.62 18.377 1.863 27.363 2.4 17.309 15.638 21.814 31.44 21.972 19.506.189 39.011-6.146 57.563-11.446 8.744-2.5 17.3-4.815 25.689-7.925 4.3 5.984 11.833 12.224 18.6 12.443a6.948 6.948 0 0 0 6.2-2.665c3.834-2.214 6.891-6.709 10.014-9.475 5.8-5.132 11.6-10.176 17.588-15.092 3-2.456 5.9-4.977 8.7-7.6q-.627 4.786-1.2 9.593c-1.287 10.762-2.979 21.447-3.41 32.293-.357 8.865 0 20.513 6.648 27.255 3.811 3.865 9.1-.219 8.36-4.869-1.422-8.939-2.453-17.238-2.022-26.369.472-10.007 2.072-19.923 3.187-29.87 1.439-12.821 3.016-25.6 5.27-38.314 2.285-12.861 6.591-26.942 6.4-40.019a2.016 2.016 0 0 0-3.727-1.011c-8.087 11.075-11.507 27.4-14.361 40.565-1.1 5.047-2.035 10.108-2.871 15.179-.64.805-1.267 1.567-1.887 2.227-5.33 5.644-11.419 10.668-17.312 15.7-5.822 4.98-11.948 9.835-17 15.624-.165.192-.34.384-.512.58a71.67 71.67 0 0 0-.859-5.337 272 272 0 0 0-10.6-38.61c-3.717-10.439-8.073-24.034-15.5-33.516q4.544-3.1 9.067-6.237c14.243-9.926 28.361-20.011 43.105-29.189q9.335-5.812 19.037-11c8.2-4.4 17.467-5 26.565-4.913 3.905.04 7.8.33 11.7.6-5.583 3.548-8.693 11.759-9.667 18.535a77.365 77.365 0 0 0-.579 5.381c-5.1 11.574-7.217 25.214-9.431 37.4-2.726 15.011-5.2 30.066-7.618 45.127a406.101 406.101 0 0 0-4.259 37.926c-.738 11.338-2.382 24.361.435 35.51a6.967 6.967 0 0 0 4.916 4.916 7.265 7.265 0 0 0 5.421-.714 7.054 7.054 0 0 0 3.487-6.075c.357-11.22-.047-22.393.7-33.637.8-12.106 2.348-24.044 4.1-36.043q3.159-21.616 6.7-43.186c.792-4.771 1.735-9.7 2.608-14.681a20.252 20.252 0 0 0 3.282 2.746c7.251 4.818 21.143 3.683 29.257-1.311a19.321 19.321 0 0 0 4.569 5.3c6.341 4.994 14.094 3.727 20.523-.317 7.352 7.554 16.4 13.454 27.1 14.61 12.039 1.294 20.56-7.773 24.374-18.138a58.218 58.218 0 0 0 2.453-8.683 26.2 26.2 0 0 0 9.832-4.747 391.02 391.02 0 0 0-19.559 49.729c-4.468 13.825-8.862 27.677-13.013 41.606-2.355 7.911-4.626 15.846-6.7 23.835-.97 3.747-2.726 8.855-3.059 13.548-3.477 1.779-6.8 3.733-9.765 5.347-8.676 4.741-18.373 8.838-25.163 16.234-8.538 9.306-7.682 24.418-.687 34.577a71.639 71.639 0 0 0-3.1 33.8c.917 6.439 2.652 13.98 9.562 16.3 7.389 2.473 14.317-5.287 18.967-11.554 8.083 5.051 16.564 10.415 25.914 12.086 9.957 1.779 17.858-3.989 23.613-11.527 6.476-8.491 11.2-18.01 15.041-27.939 2.487-6.432 4.741-13.761 5.017-20.948 10.893 2.834 22.376 4.273 32.906 5.452a204.469 204.469 0 0 0 61.29-2.874c29.459-5.721 72.173-21.709 72.48-57.274.175-20.392-9.377-40.848-16.123-59.683-7.428-20.729-15.306-41.373-24.811-61.25zM101.923 374.878c4.781-14.691 20.557-22.619 30.379-33.519a40.3 40.3 0 0 0 9.205-17.073c1.415-5.536 4.95-17.356 12.834-15.331 9.263 2.379 12.928 16.847 15.085 25.062a206.354 206.354 0 0 1 5.485 29.4c.266 2.4 1.745 13.265.04 17.612a4.049 4.049 0 0 0-.711 1.2 1.835 1.835 0 0 1-.836.546c-3.241.92-8.531-5.128-10.132-6.951-5.93-6.759-8.407-16.719-11.244-25.038a16.053 16.053 0 0 0-4.6-7.369c-1.675-1.574-3.939-.337-4.175 1.728-.812 7.039 2.6 14.576 5.111 21.076 2.541 6.587 5.87 12.881 10.839 17.885-2.423 2.345-4.684 4.946-6.948 7.541-1.28-1.368-2.638-2.685-3.875-4.134-3.423-4.01-6.49-8.306-9.647-12.521-1.129-1.513-10.364-13.289-12.555-8.07-1.176 2.8 1.213 5.209 2.554 7.571 2.116 3.727 4.785 7.207 7.184 10.759 2.753 4.08 6.065 9.407 10.294 12.841-.226.216-.445.445-.674.657a82.86 82.86 0 0 1-7.019 5.789c-2.756-3.706-7.258-6.847-9.936-10.031-4.239-5.041-8.434-11.571-14.313-14.792a1.179 1.179 0 0 0-1.715 1.317c1.287 6.806 6.035 13.865 10.317 19.186 2.163 2.692 4.929 6.436 8.191 8.9a38.792 38.792 0 0 1-6.594 2.621c-9.62 2.763-13.68-4.175-20.166-9.549h-.007c-3.486-8.872-5.231-18.515-2.371-27.313zm110.383 188.57c3.973 11.483 7.029 23.377 9.9 35.184a367.488 367.488 0 0 1-73.336 24.439 105.669 105.669 0 0 1-25.86 2.8c-8.686-.239-14.387-3.312-15.112-12.339-.681-8.5-.569-17.124-1.146-25.652-.775-11.523-1.146-23.067-.852-34.614.559-21.75 5.327-42.1 12.585-62.5 4.646-13.053 11.153-30.733 8.885-45.6a38.275 38.275 0 0 0 12.113 4.31c2.008.337 3.652-2.564 1.5-3.558-11.355-5.239-20.958-16.3-27.828-26.885a28.6 28.6 0 0 0 17.645-.533c13.033-4.748 27.929-16.817 35.578-28.98.246.125.492.253.741.371a42.52 42.52 0 0 0-4 7.5c-3.312 8.016-5.755 18.545-2.888 27.036a1.176 1.176 0 0 0 2.251 0c2.561-6.786 4.286-13.795 7.14-20.513a40.258 40.258 0 0 1 5.357-9.044c1.964-2.5 5.014-3.875 6.527-6.668a4.2 4.2 0 0 0 .2-.479c7.962-.307 14.118-5.863 18.67-12.794 3.009-4.579 5.081-10.725 9.529-14.141a25.187 25.187 0 0 1 15.654-5.182c2.679.017 10.684 2.062 9.691 6-.839 3.329-5.64 6.072-8.2 7.868-6.025 4.232-14.1 7.817-18.39 14.044-7.793 11.325-9.205 27.417-13.636 40.211-2.392 6.9-5.5 13.966-10.914 19.037-6.806 6.378-13.289 2.911-21.329 2.382-2.15-.141-3.211 2.76-1.729 4.175a18.232 18.232 0 0 0 9.259 4.461c-2.419 8.969-1.189 19.371-.768 28.337.566 12 2 23.872 3.083 35.834 2.082 23.128 2.669 49.861-8.838 70.745-2.369 4.3 3.861 7.874 6.527 3.818 6.331-9.633 11.894-19.981 14.617-31.235a69.578 69.578 0 0 0 1.57-9.613c3.7-1.654 7.025-4.323 10.489-6.607 1.917-1.264 3.818-2.554 5.728-3.834 2.868 7.498 7.009 14.771 9.587 22.219zm175.487-78.582a442.17 442.17 0 0 0 46.96-1.557c-.431.323-.862.65-1.294.957q-6.6 4.741-13.393 9.229c-9.775 6.439-20.166 11.864-30.025 18.138a.8.8 0 0 0-.189 1.243q-1.627.955-3.11 1.921a13.059 13.059 0 0 0-5.543-8.592 30.16 30.16 0 0 0-14.249-4.39 35.239 35.239 0 0 0 2.955-6.877A22.778 22.778 0 0 0 371 484.071c5.623.486 11.273.671 16.792.796zm-49.7 4.983a31.321 31.321 0 0 0-5.25-3.585 42.111 42.111 0 0 0 8.009-.974 34.47 34.47 0 0 0-2.762 4.56zm9.266-1.479c1.745-2.187 4.643-4.525 6.5-7.116a88.69 88.69 0 0 0 10.307 2.065 32.7 32.7 0 0 1-2.925 9.387c-1.59 3.218-4.829 6.1-5.361 9.643a8.495 8.495 0 0 0-6.392 2.615 42.78 42.78 0 0 0-6.645-10.4c1.598-1.988 2.946-4.236 4.513-6.193zm-21.49 43.56c-7.706-3.524-6.951-14.876-6.436-21.753.472-6.3 1.739-18.262 10.24-13.778 6.86 3.619 10.769 10.61 15.675 16.308-.067.27-.135.532-.192.8a33.159 33.159 0 0 0-.667 4.336c-1.648-1-3.3-2-4.882-3.1-3.208-2.227-5.994-5.357-9.758-6.611a2.178 2.178 0 0 0-2.665 2.662c1.328 3.686 4.488 5.876 7.49 8.2a86.942 86.942 0 0 0 7.581 5.428c-1.665.219-3.329.4-5.031.468-2.894.115-6.665-.758-8.777 1.584a1.191 1.191 0 0 0 0 1.651c2.028 2.311 5.93 1.725 8.777 1.917a43.769 43.769 0 0 0 8.137-.037c.067.28.142.556.216.836-6.571.965-13.087 4.115-19.711 1.09zm30.759 4.225c-4.367-4.491-4.724-13-3.74-18.785.411-2.419 1.068-5.28 2.79-7.133 4.518 1.284 9.684.819 14.239 1.466 8.575 1.213 9.445 7.965 6.4 14.91-2.895 6.578-12.572 16.861-19.692 9.543zm59.09.451c-3.022 8.579-8.764 14.115-18.04 11.746a33.353 33.353 0 0 1-11.254-5.657c3.858 1.809 8.1 2.975 11.581 1.806a1.637 1.637 0 0 0 .714-2.7c-1.762-2-4.394-3.167-6.631-4.552-2.318-1.439-4.576-2.989-6.833-4.529 6.008.5 12.827-.118 17.686-2.85a2.186 2.186 0 0 0-.519-3.959c-2.861-.97-5.971-.927-8.956-1.26-2.247-.249-4.518-.6-6.779-.97q.187-1 .3-2c9.01-3.231 20.4-10.836 29.213-6.88 6.732 3.029 1.119 17.251-.485 21.807zm12.561-14.158c-.074-5.384-1.57-10.475-5.768-13.815a15.661 15.661 0 0 0-8.936-3.275q5.206-2.5 10.263-5.415c8.326-4.771 18.775-10.668 25.51-18.114q4.1-.49 8.194-1.088a176.276 176.276 0 0 1-10.432 20.385c-5.295 8.634-11.741 14.908-18.834 21.323zm-8.709 100.744c4.067-14.216 8.451-28.334 12.891-42.438 4.967-15.779 10.459-31.2 17.548-46.185 4.5-9.519 9.65-18.741 14.691-28.017a38.722 38.722 0 0 0 .091 6.51c.357 3.447 5.354 4.6 6.335.859 4.441-17 13.5-38.893 32.067-44.136 17.45-4.926 36.4 13.033 45.255 25.87 10.671 15.476 18.013 33.994 25.51 51.151 2.116 4.832 4.114 9.711 6.052 14.613-11.048-1.267-24.479 2.689-32.353 5.688a122.47 122.47 0 0 0-26.362 13.963 61.141 61.141 0 0 0-9.6 7.851c-2.534-4.734-5-9.509-7.453-14.283q-6.3-12.241-13.774-23.785c-3.652-5.637-8.238-13.474-14.964-15.648a1.393 1.393 0 0 0-1.759 1.338c.849 7.325 6.884 14.3 10.428 20.614 2.433 4.34 4.687 8.777 6.907 13.228-4.434 6.422-6.159 16.382-6.975 23.1a113.352 113.352 0 0 0 .067 29.486q-13.884 2.355-27.744 4.812c-15.021 2.682-29.752 6.311-42.219 15.021 1.769-6.539 3.497-13.092 5.361-19.612zm75.846-2.113c-1.139-8.451-.836-17.13-.421-25.6.249-5.081.519-10.206 1-15.27.249.489.5.987.748 1.479 5.974 11.611 12.083 25.021 20.54 35.753-3.12.472-6.247 1-9.387 1.533l-12.481 2.105zM364 694.233c-.671-6.476 3.339-11.227 8.336-14.745 3.828-2.7 7.9-5.027 11.982-7.369a694.427 694.427 0 0 0-8.926 10.674 99.3 99.3 0 0 0-10.542 15.477 21.2 21.2 0 0 1-.85-4.037zm237.569-30.268c-10.685 12.662-29.1 19.435-44.487 24.031-38.893 11.611-82.133 7.43-120.643-3.366-4.744-1.331-7.625 5.472-3.342 7.925a75.841 75.841 0 0 0 11.6 5.3c1.435 13.65-7.756 30.21-14.2 40.989-4.889 8.171-10.678 15.611-21.039 12.437-8.343-2.547-16.008-9-23.438-13.434-2.551-1.52-5.442-.431-7.029 1.846-1.547 2.21-9.124 13.875-11.187 10.112-2.8-5.115-1.759-12.959-1.472-18.5 1.183-22.9 15.439-39.884 29.958-56.583 8.848-10.172 17.973-19.317 29.84-25.934 12.75-7.11 29.718-8.656 43.91-10.961 18.828-3.063 75.5-13.464 82.646-13.825a2.792 2.792 0 0 0 .741-5.458c-8.282-2.638-16.534-3.032-24.823-2.426-3.885-5.661-7.925-11.176-11.379-17.171-.519-.9-1.018-1.809-1.523-2.712a113.277 113.277 0 0 1 33.109-18.435 87.894 87.894 0 0 1 22.639-5.041 39.165 39.165 0 0 1 13.555 1.739c4.374 11.746 8.538 23.572 12.972 35.295 6.023 15.896 16.275 39.145 3.592 54.172z" class="cls-10" data-name="Path 84" transform="translate(-90.379 -126.643)"/>
                <path id="Path_85" d="M152.832 239.207c-11.709 14.62-17.312 43.627-3.127 58.527a1.85 1.85 0 0 0 3.134-1.3c-1.466-18.559-3.167-37.02 4.08-54.848.91-2.234-2.591-4.249-4.087-2.379z" class="cls-10" data-name="Path 85" transform="translate(30.253 135.524)"/>
                <path id="Path_86" d="M218.194 284.946a82.362 82.362 0 0 1-2.834-25.9c.34-8.437 2.83-16.51 3.824-24.833a1.622 1.622 0 0 0-2.753-1.139c-5.833 7.032-7.632 17.164-8.747 25.972-1.23 9.744-1.513 20.062 2.7 29.2 2.065 4.473 9.09 1.262 7.81-3.3z" class="cls-10" data-name="Path 86" transform="translate(185.68 121.616)"/>
                <path id="Path_87" d="M180.638 355.432a10.651 10.651 0 0 0-6.035-2.773 6.028 6.028 0 0 0-1.557.013c.95-11.827 2.288-23.62 4.08-35.335 1.365-8.912 3.373-17.791 5.374-26.672 3.521 2.109 8.009 2.658 11.261-.361 4.771-4.424.31-12.154-4.35-14.468a9.748 9.748 0 0 0-3.481-1.018 196.376 196.376 0 0 0 2.992-19.533c.256-2.726-4.013-3.848-5.179-1.405-9.249 19.351-12.969 42.33-16.662 63.308a412.154 412.154 0 0 0-6.089 66.169c-.088 6.749 10.29 6.725 10.452 0 .1-4.306.27-8.609.472-12.912a11.492 11.492 0 0 0 5.523.472c3.42-.475 7.443-4.492 6.981-8a11.75 11.75 0 0 0-3.782-7.485z" class="cls-10" data-name="Path 87" transform="translate(76.939 168.847)"/>
            </g>
            <g id="Group_16" data-name="Group 16" transform="translate(198.289 135.836)">
                <path id="Path_88" d="M214.625 181.925a65.481 65.481 0 0 0-12.76-.9l-1.3 2.16a91.835 91.835 0 0 0-5.462 10.368c-4.043 9.118-7.918 19.93-7.089 30.055.731 8.932 4.168 13.623 12.052 17.683a135.207 135.207 0 0 0 23.168 9.62c6.341 1.887 13.164 3.919 19.839 4 4.131.051 7.072-4.508 9.8-8.579a136.192 136.192 0 0 0 18.748-41.717 189.5 189.5 0 0 0-30.062-14.347c-8.816-3.256-17.681-6.568-26.934-8.343z" class="cls-7" data-name="Path 88" transform="translate(-57.604 -136.432)"/>
                <path id="Path_89" d="M191.42 176.806a201.244 201.244 0 0 0-29.772-4.825c-4.825 13.97-7.986 27.8-7.858 42.883.04 4.865-.505 9.286 3.636 11.7a86.8 86.8 0 0 0 18.98 7.861c7.881 2.335 16.5 4.569 24.765 4.778 8.723.222 14.431-4.8 18.411-12.43a81.362 81.362 0 0 0 8.073-25.618c.229-1.53 1.021-6.072 1.375-9.414a65.61 65.61 0 0 0-11.891-7.022c-8.232-3.502-17.039-5.827-25.719-7.913z" class="cls-7" data-name="Path 89" transform="translate(-138.43 -157.851)"/>
                <path id="Path_90" d="M337.039 207.613a122.534 122.534 0 0 0-29.051-7.177c-7.9-1-18.094-2.049-25.365 1.947-4.657 2.554-2.584 9.253 2.173 9.879-.876 1.7-1.614 3.363-2.237 4.65a97.513 97.513 0 0 0-7.16 20.011c-7.342-8.211-22.73-13.636-33.3-11.015a106.7 106.7 0 0 0 3.76-15.671c.179-1.075.455-2.51.687-4.087 4.731 2.561 9.05-3.066 6.944-7.487-3.127-6.554-11.426-11.18-17.5-14.539a119.585 119.585 0 0 0-28.1-10.937c-17.15-4.363-37.263-7.915-54.656-3.076-6.136 1.7-4.906 11.106 1.5 11.079 3.066-.013 6.136.067 9.2.2-3.147 5.031-4.667 11.918-5.923 16.78a104.962 104.962 0 0 0-3.508 30.625c.3 6.9 1.83 12.137 7.79 15.961 7.541 4.842 16.844 7.638 25.409 9.967 9.606 2.615 19.361 3.976 29.2 1.931 9.31-1.931 14.256-9.01 18.923-16.76a56.576 56.576 0 0 0 1.8-3.231c7.17-5.62 22.1 1.129 28.135 5.084 2.958 1.941 4.522 7.241 7.615 8.8-.017.253-.047.5-.061.755-.472 9.748.96 17 7.817 24.041 7.234 7.419 17.059 11.51 26.632 14.95a102.8 102.8 0 0 0 26.025 6.068c7.4.61 11.921-3.5 16.227-9.077 6.493-8.4 11.166-17.831 15.1-27.656 2.136-5.341 5.138-12.645 5.27-19.246a214.208 214.208 0 0 1 8.862 5.984c5.563 3.983 10.664-4.283 6.833-8.858-12.226-14.618-31.671-23.136-49.041-29.895zm-98.586 3.474a81.363 81.363 0 0 1-8.073 25.613c-3.979 7.628-9.687 12.652-18.411 12.43-8.262-.209-16.884-2.443-24.765-4.778a86.8 86.8 0 0 1-18.98-7.861c-4.141-2.409-3.6-6.83-3.636-11.7-.128-15.078 3.032-28.913 7.858-42.883a201.245 201.245 0 0 1 29.772 4.825c8.68 2.086 17.487 4.411 25.719 7.908a65.61 65.61 0 0 1 11.891 7.022c-.354 3.352-1.146 7.894-1.375 9.424zm106.039 66.6c-2.726 4.07-5.667 8.629-9.8 8.579-6.675-.081-13.5-2.113-19.839-4a135.2 135.2 0 0 1-23.168-9.62c-7.884-4.06-11.321-8.75-12.052-17.683-.829-10.125 3.046-20.938 7.089-30.055a91.84 91.84 0 0 1 5.462-10.368q.652-1.076 1.3-2.16a65.481 65.481 0 0 1 12.76.9c9.253 1.776 18.117 5.088 26.929 8.339a189.492 189.492 0 0 1 30.062 14.347 136.192 136.192 0 0 1-18.743 41.717z" class="cls-10" data-name="Path 90" transform="translate(-149.228 -167.787)"/>
            </g>
            <g id="Group_17" data-name="Group 17" transform="translate(409.509 217.561)">
                <path id="Path_91" d="M212.029 198.241l.276 1.2a5.84 5.84 0 0 0 4.084 4.084c9.744 2.787 19.438 5.742 29.041 8.966 9 3.022 17.5 6.8 27.11 7.2 2.9.118 4.155-3.558 2.281-5.506-6.523-6.783-14.994-9.687-23.707-12.662-10.4-3.551-20.988-6.493-31.612-9.279a5.868 5.868 0 0 0-5.691 1.506c-1.264 1.334-2.237 2.544-1.782 4.495z" class="cls-10" data-name="Path 91" transform="translate(-211.915 -192.042)"/>
            </g>
            <path id="Path_92" d="M189.588 197.939c-2.7 8.006-9.977 12.777-16.257 10.661s-9.182-10.324-6.479-18.33 9.977-12.78 16.257-10.661 9.178 10.325 6.479 18.33z" class="cls-10" data-name="Path 92" transform="translate(88.422 -5.131)"/>
            <path id="Path_93" d="M178.385 188.167c-1.419 4.212-5.25 6.722-8.552 5.61s-4.832-5.431-3.41-9.643 5.25-6.725 8.552-5.61 4.832 5.432 3.41 9.643z" class="cls-7" data-name="Path 93" transform="translate(88.542 -7.139)"/>
            <path id="Path_94" d="M219.575 205.963c-2.7 8.006-9.98 12.78-16.257 10.661s-9.182-10.324-6.483-18.33 9.98-12.777 16.261-10.661 9.178 10.324 6.479 18.33z" class="cls-10" data-name="Path 94" transform="translate(159.47 13.882)"/>
            <path id="Path_95" d="M208.8 195.769c-1.422 4.212-5.25 6.722-8.555 5.61s-4.832-5.432-3.41-9.643 5.25-6.722 8.555-5.61 4.824 5.431 3.41 9.643z" class="cls-7" data-name="Path 95" transform="translate(160.593 10.874)"/>
            <g id="Group_18" data-name="Group 18" transform="translate(421.709 440.02)">
                <path id="Path_96" d="M218.652 294.607c4.454-2.113 8.4-5.89 12.683-8.528a94.234 94.234 0 0 1 15.934-7.285 89.012 89.012 0 0 1 22.582-5.085c8.629-.89 15.7 1.974 23.994 3.039 6 .775 9.529-8.336 4.994-12.049-15.348-12.578-40.527-4.67-56.492 2.409a97.911 97.911 0 0 0-19.718 11.22c-4.181 3.2-9.529 10.6-5.876 15.779a1.433 1.433 0 0 0 1.9.5z" class="cls-10" data-name="Path 96" transform="translate(-215.536 -258.065)"/>
            </g>
            <g id="Group_19" data-name="Group 19" transform="translate(484.362 446.012)">
                <path id="Path_97" d="M234.2 262.629c-.863 8.916 6.645 18.3 10.142 26.066 4.3 9.556 7.022 19.873 9.32 30.065 2 8.872 2.345 17.319-.145 26.133-2.537 8.983-10.125 14.947-13.858 23.256a2.437 2.437 0 0 0 2.065 3.6c10.833 1.3 18.973-7.416 24.243-15.749 6.176-9.761 6.86-22.491 5.223-33.587-1.9-12.9-6.57-25.4-11.79-37.283-4.077-9.283-10.654-24.459-22.42-25.281a2.818 2.818 0 0 0-2.78 2.78z" class="cls-10" data-name="Path 97" transform="translate(-234.131 -259.843)"/>
            </g>
            <g id="Group_20" data-name="Group 20" transform="translate(348.002 500.112)">
                <path id="Path_98" d="M354.336 277.566c-3.406 13.417-6.645 27.848-17.41 37.407-11.938 10.6-30.231 14.33-45.406 17.265-17.282 3.346-35.032 4.107-52.57 5.091a236.717 236.717 0 0 1-25.965.266c-6.375-.34-12.767-2.035-18.293 1.806a2.192 2.192 0 0 0 .516 3.966c6.537 1.718 12.784 5.526 19.549 6.233 10.627 1.109 21.251 2.194 31.932 2.6 20.584.778 41.545-1.634 61.664-5.876 15.826-3.339 33.617-10.954 44.217-23.6 10.2-12.174 15.456-31.824 6.035-45.72a2.361 2.361 0 0 0-4.269.559z" class="cls-10" data-name="Path 98" transform="translate(-193.661 -275.899)"/>
            </g>
            <g id="Group_21" data-name="Group 21" transform="translate(291.053 563.872)">
                <path id="Path_99" d="M234.571 296.094c-1.816 2.857-2.19 6.688-2.5 10-.5 5.374-2.446 10.809-4.283 15.85-3.181 8.717-9.219 21.217-17.262 26.463-4.437 2.894-9.909 2.116-14.718.876-4.707-1.213-9.06-4.889-13.616-5.829-7.534-1.55-6.375 5.111-1.752 8.609a45.926 45.926 0 0 0 24.941 9.471c10.065.761 16.783-5.741 22.306-13.218a91.494 91.494 0 0 0 13.882-29.031c2-6.988 3.828-19.536-3.5-24.112a2.584 2.584 0 0 0-3.5.917z" class="cls-10" data-name="Path 99" transform="translate(-176.759 -294.823)"/>
            </g>
            <g id="Group_22" data-name="Group 22" transform="translate(366.856 413.296)">
                <path id="Path_100" d="M217.214 251.954a165.881 165.881 0 0 1-6.439 54.784 217.446 217.446 0 0 1-9.337 25.341c-2.069 4.822-4.707 13.242 2.877 14.017 6.56.674 10.722-12.389 12.46-16.81a154.047 154.047 0 0 0 7.746-28.266c3.049-16.426 3.592-34.719-3.888-49.989-.8-1.638-3.508-.856-3.42.923z" class="cls-10" data-name="Path 100" transform="translate(-199.256 -250.134)"/>
            </g>
            <g id="Group_23" data-name="Group 23" transform="translate(378.042 426.104)">
                <path id="Path_101" d="M214.739 254.825c-1.2 8.312-2.342 15.378-1.061 23.815 1.1 7.268 12.511 4.279 11.139-3.073-.583-3.13.229-6.166.991-9.168q-4.266-.581-8.531-1.156c-1.1 10.543-4.407 21.086-7.625 31.151-2.948 9.215-7.588 19.745-7.029 29.567.472 8.322 11.17 9.364 14.024 1.9.532-1.392 2.635-3.3 3.561-4.535q-4.756.611-9.509 1.226c2.426 2.928 4.188 4.923 8.077 5.408 2.338.3 3.989-1.769 4.768-3.629l.361-.859c.849-2.025-.273-4.34-1.543-5.846-1.031-1.216-2.106-2.386-3.1-3.636-2.039-2.561-6.456-2.167-8.562 0a21.026 21.026 0 0 1-4.542 3.811q4.882 4.877 9.768 9.765c4.262-9.819 5.947-21.426 8.208-31.9 2.456-11.382 3.481-22.026 1.675-33.58-.563-3.6-6.459-3.612-7.938-.3a60.26 60.26 0 0 0-4.192 13.252h11.139c-2.284-9.768-3.309-15.024-6.928-21.891-.647-1.23-2.931-1.83-3.15-.327z" class="cls-10" data-name="Path 101" transform="translate(-202.576 -253.935)"/>
            </g>
            <g id="Group_24" data-name="Group 24" transform="translate(415.959 344.868)">
                <path id="Path_102" d="M214.131 233.467c2.53 2.456 7.136 3.032 10.283 5 4.576 2.861 7.986 7.709 10.941 12.1 5.539 8.238 9.131 17.871 13.9 26.625 7.43 13.64 12.686 28.633 17.7 43.3 1.7 4.977 3.194 13.872 8.178 16.79a7.039 7.039 0 0 0 10.337-4.205c1.6-5.819-2.288-13.8-4.131-19.2-2.433-7.126-5.118-14.2-8.225-21.062-5.27-11.628-12.187-22.3-19.044-33.017-5.31-8.309-12.41-17.036-20.035-23.327-4-3.3-15.29-10.128-19.9-4.5a1.076 1.076 0 0 0 0 1.493z" class="cls-10" data-name="Path 102" transform="translate(-213.83 -229.825)"/>
            </g>
            <g id="Group_25" data-name="Group 25" transform="translate(149.311 409.64)">
                <path id="Path_103" d="M136.339 315.68c25.23-12.268 47.556-35.335 49.6-64.474.162-2.308-3.043-2.894-4.141-1.122-13.973 22.467-30.871 43.162-46.9 64.151-.7.927.6 1.857 1.445 1.446z" class="cls-10" data-name="Path 103" transform="translate(-134.692 -249.049)"/>
            </g>
            <g id="Group_26" data-name="Group 26" transform="translate(275.795 348.816)">
                <path id="Path_104" d="M172.888 241.948c4.663 4.421 11.038 5.081 17.13 6.217 8.066 1.506 16.177 1.149 24.314.758a126.629 126.629 0 0 0 23.967-3.417c5.6-1.371 14.31-2.78 15.641-9.492a3.336 3.336 0 0 0-1.483-3.639c-4.791-3.167-10.223-.067-15.152 1.28a126.91 126.91 0 0 1-22.973 3.848c-6.823.559-13.8.263-20.641.135-6.463-.118-13.612-1.56-19.822.6a2.245 2.245 0 0 0-.981 3.713z" class="cls-10" data-name="Path 104" transform="translate(-172.231 -230.997)"/>
            </g>
            <g id="Group_27" data-name="Group 27" transform="translate(304.9 355.27)">
                <path id="Path_105" d="M183.908 261.238c9.044-4.242 13.639-13.508 18.7-21.618q-4.352-1.178-8.7-2.359c-.559 4.272-2.416 8.039-4.175 11.914-1.4 3.083 1.624 7.123 4.993 4.993 4.262-2.692 6.958-6.786 10.351-10.4l-4.96-3.831c-1.459 2.918-3.221 5.651-4.818 8.5-1.509 2.692 1.641 6.348 4.441 4.441a72.006 72.006 0 0 0 11.069-9.074q-2.168-.895-4.336-1.8c-.431.431-.863.866-1.294 1.3-3.76 1.641.505 7.81 3.511 4.545 3.194-3.474 5.977-7.244 9.367-10.553 1.664-1.624-.5-4.485-2.493-3.231-4.495 2.824-8.444 5.836-11.422 10.277q2.7.733 5.395 1.459l1.274-2c1.766-1.422.276-4.39-1.8-4.337-5.59.148-8.346 4.7-12.548 7.8l4.441 4.441c1.476-2.9 3.053-5.755 4.667-8.582 1.53-2.682-1.58-6.048-4.32-4.323-3.949 2.483-6.25 6.655-10.213 9.061l5 5c2.291-4.828 5.125-9.353 7.042-14.357 2.045-5.344-5.644-7.5-8.535-3.6-5.4 7.3-7.75 16.443-13.3 23.667-1.317 1.715 1.115 3.39 2.662 2.665z" class="cls-10" data-name="Path 105" transform="translate(-180.869 -232.912)"/>
            </g>
            <g id="Group_28" data-name="Group 28" transform="translate(331.495 348.311)">
                <path id="Path_106" d="M222.217 232.522c-3 10.715-9.377 19.876-16.642 28.148-3.282 3.737-6.6 7.382-10.155 10.87-3.066 3.006-6.439 5.954-6.655 10.462a3.5 3.5 0 0 0 3.447 3.447c5.091.485 9.29-4.107 12.74-7.285a104.168 104.168 0 0 0 12.511-13.794c6.924-9.155 11.106-20.382 9.256-31.848-.384-2.382-3.919-2.079-4.5 0z" class="cls-10" data-name="Path 106" transform="translate(-188.762 -230.847)"/>
            </g>
            <g id="Group_29" data-name="Group 29" transform="translate(295.515 383.945)">
                <path id="Path_107" d="M204.643 244.059c5.384 7.514 1.341 18.68-3.086 25.844-2.076 3.359-6.038 6.062-9.667 7.419-3.956 1.476-8.164-.071-12.009 1.506-1.479.606-2.6 2.719-1.055 4 9.434 7.807 25.1.549 31.032-8.07 6.291-9.141 9.333-28.03-3.272-33.229-1.378-.566-2.787 1.358-1.944 2.534z" class="cls-10" data-name="Path 107" transform="translate(-178.084 -241.423)"/>
            </g>
            <g id="Group_30" data-name="Group 30" transform="translate(259.112 379.437)">
                <path id="Path_108" d="M177.093 244c2.679 1.294 4.977 3.558 7.615 5.027a10.91 10.91 0 0 1 3.588 3.75c1.038 1.883.155 5.6-1.695 8.649-1.809 2.982-4.684 6.19-8.083 7.4-1.813.647-2.824.967-4.633.051-.964-.485-1.59-1.361-2.5-1.89a2.413 2.413 0 0 0-1.762-.233c.583-.115-.906-1.664-.832-1.577-.6-.691-1.7.04-1.486.863.832 3.086 1.206 5.192 4 7.248a15.915 15.915 0 0 0 7.659 2.844c6.476.6 12.524-4.148 16.173-8.983 3.969-5.266 5.62-12.588 2.817-18.714-1.331-2.908-4.367-6.466-7.581-7.322a21.813 21.813 0 0 0-5.7-1.028c-2.76.04-4.758 1.105-7.318 1.88a1.121 1.121 0 0 0-.263 2.032z" class="cls-10" data-name="Path 108" transform="translate(-167.28 -240.085)"/>
            </g>
            <g id="Group_31" data-name="Group 31" transform="translate(260.895 377.749)">
                <path id="Path_109" d="M169.673 251.371c1.462-2.386 5.388-3.7 8.066-4.367 2.723-.674 6.284-.559 9.1-.526a1.794 1.794 0 0 0 1.536-2.679c-2.975-4.316-7.7-4.882-12.521-3.636-5.5 1.422-7.868 5.226-8.043 10.7a1.007 1.007 0 0 0 1.863.509z" class="cls-10" data-name="Path 109" transform="translate(-167.809 -239.584)"/>
            </g>
            <g id="Group_32" data-name="Group 32" transform="translate(444.037 226.555)">
                <path id="Path_110" d="M263.439 201.314c1.789-.1 4.781-1.483 4.9.937a19.026 19.026 0 0 1-1.924 8.393c-2.332 4.97 5.368 7.932 6.766 2.851a11.4 11.4 0 0 1 5.671-7.17l-4.481-4.481C271.6 208.3 266.5 212.16 262.017 217.4c-5.384 6.291-6.2 14.209-7.059 22.127-.873 7.989-3.285 14.27-11.591 16.473-5.529 1.469-11.911-3.09-16.22-6-2.214-1.5-4.768.536-4.936 2.83-.677 9.283 5.89 14.967 14.869 16.574 10.085 1.806 19.172-2.729 26.5-9.31 9.111-8.171 6.176-19.8 8.794-30.332 2.328-9.387 12.052-16.5 7.975-27.134-.852-2.224-3.612-3.336-5.475-1.445-2.419 2.453-4.421 6.166-7.14 8.13l5.064 5.064c2.891-5.007 5.01-11.618 1.594-16.9-3.238-5.007-9.562-2.389-12.349 1.415a1.621 1.621 0 0 0 1.392 2.426z" class="cls-10" data-name="Path 110" transform="translate(-222.163 -194.712)"/>
            </g>
            <g id="Group_33" data-name="Group 33" transform="translate(481.386 225.166)">
                <path id="Path_111" d="M245.578 201.125c1.395-.913-1.122-3.356-1.034.529.051 2.338-.057 4.673-.077 7.012-.054 5.33-1.284 8.178-2.7 14.1-2.045 8.562-4.646 16.955-7.059 25.412-1.173 4.1-3.343 10.31 1.867 12.342 1.567.613 3.292-.179 4.461-1.179 7.908-6.752 10.341-18.646 12.733-28.27 1.742-7.015 3.528-13.987 3.2-21.238-.222-4.825-.856-11.85-5.563-14.606-4.212-2.466-6.715.374-8.194 4.077-.529 1.328 1.253 2.551 2.369 1.823z" class="cls-10" data-name="Path 111" transform="translate(-233.247 -194.299)"/>
            </g>
            <g id="Group_34" data-name="Group 34" transform="translate(458.223 79.143)">
                <path id="Path_112" d="M237.283 151.882c6.287 11.544 12.71 23.93 17.292 36.252 4.99 13.41 5.536 28.317 3.174 42.337-2.5 14.866-8.211 29.018-13.987 42.856-5.391 12.932-12.474 25.5-17.019 38.728-2.264 6.587 6.405 10.509 10.964 6.382 11.109-10.058 16.045-27.333 21.662-40.807 6.449-15.456 12.16-30.851 14.236-47.549 1.9-15.338-1.54-30.443-7.831-44.392-6.405-14.2-16.648-23.852-27.532-34.547a.614.614 0 0 0-.96.741z" class="cls-10" data-name="Path 112" transform="translate(-226.373 -150.962)"/>
            </g>
            <g id="Group_35" data-name="Group 35" transform="translate(327.944 35.57)">
                <path id="Path_113" d="M189.134 150.547c6.934-8.376 20.52-.374 27.394 3.743 8.942 5.357 17.558 11.227 26.089 17.214 13.2 9.266 24.9 21.123 35.574 33.148 5.485 6.18 10.978 12.315 16.1 18.808 4.855 6.159 10.1 13.552 17.3 17.046 3.3 1.6 7.463-1.007 6.372-4.9-2.359-8.4-8.248-16.362-12.959-23.633a198.752 198.752 0 0 0-17.764-23.212 181.042 181.042 0 0 0-44.193-37c-10.014-5.866-20.489-10.934-31.959-13.06-5.277-.98-10.944-1.092-15.964 1.038-4.727 2.008-6.025 5.418-7.376 10-.226.761.849 1.469 1.395.809z" class="cls-10" data-name="Path 113" transform="translate(-187.708 -138.03)"/>
            </g>
            <g id="Group_36" data-name="Group 36" transform="translate(389.01 68.863)">
                <path id="Path_114" d="M205.975 149.32c15.826 25.55 35.723 47.1 55.69 69.42 13.656 15.267 32.886 40.012 56.3 36.636 3.787-.549 3.892-6.048 1.011-7.723-4.619-2.685-9.61-4.394-14.293-6.938a70.84 70.84 0 0 1-13.451-10.011c-8.275-7.477-16.2-15.358-23.96-23.36-19.506-20.129-39.611-39.756-59.807-59.174a.951.951 0 0 0-1.486 1.149z" class="cls-10" data-name="Path 114" transform="translate(-205.831 -147.911)"/>
            </g>
            <g id="Group_37" data-name="Group 37" transform="translate(434.688 105.889)">
                <path id="Path_115" d="M219.53 160.95c3.578 7.093 5.59 14.334 10.226 20.968a158.183 158.183 0 0 0 14.93 18.37c9.192 9.664 24.583 23.482 38.981 21.75 4.845-.583 6.439-6.014 2.426-8.963-5.721-4.2-12.659-6.415-18.566-10.516-5.927-4.121-10.961-9.626-15.685-15.034-4.775-5.465-9.215-11.439-14.361-16.551-4.963-4.933-10.415-7.962-16.126-11.847-1.186-.809-2.385.718-1.826 1.823z" class="cls-10" data-name="Path 115" transform="translate(-219.388 -158.9)"/>
            </g>
            <g id="Group_38" data-name="Group 38" transform="translate(421.269 77.346)">
                <path id="Path_116" d="M215.454 151.191c1.456 3.208 1.789 6.517 3.562 9.562 1.786 3.063 3.818 5.974 5.694 8.98 4.283 6.87 8.693 13.677 13.306 20.331 7.261 10.465 18.208 23.667 30.7 27.882 1.122.377 1.776-1.082 1.082-1.86-4.525-5.074-9.832-9.458-14.381-14.559-5.145-5.775-9.674-12.211-14.3-18.407-4.4-5.9-8.43-12.052-12.521-18.161-1.964-2.931-3.8-5.9-5.886-8.754-1.644-2.247-4.532-3.632-6.473-5.62-.425-.431-1.011.115-.788.606z" class="cls-10" data-name="Path 116" transform="translate(-215.406 -150.429)"/>
            </g>
            <g id="Group_39" data-name="Group 39" transform="translate(437.178 104.697)">
                <path id="Path_117" d="M244.576 167.283c.084 1.671.9 8.818-.95 9.546-2.493.984-6.429-3.157-7.962-4.586a140.116 140.116 0 0 1-12.747-13.218c-1-1.213-3.289.088-2.692 1.57 3.285 8.194 9.714 16.551 17.5 20.86 3.612 2 7.922 2.163 10.883-1.014 3.878-4.158-1.25-9.674-3.208-13.383a.445.445 0 0 0-.826.226z" class="cls-10" data-name="Path 117" transform="translate(-220.127 -158.546)"/>
            </g>
            <g id="Group_40" data-name="Group 40" transform="translate(460.757 128.423)">
                <path id="Path_118" d="M228.193 167.2c0 .323 0 .644-.034.967.051-.414-.509-.354-.576.179 0 .158-.458 1.418-.458.505V168l.542.014c.371-.371 1.014-.738 1.381-1.105a1.258 1.258 0 0 1 1.078.077c.155.155.381.31.532.465a3.381 3.381 0 0 1-.3-.755 1.8 1.8 0 0 0-.711-.923.552.552 0 0 0-.667.088c-.694.549-.566 1.442-.671 2.244.125-.307.253-.61.381-.916-.735.927-.738 2.4.644 2.78a1.7 1.7 0 0 0 2.069-1.179 8.356 8.356 0 0 0 .121-1.587 1.669 1.669 0 0 0-3.336 0z" class="cls-10" data-name="Path 118" transform="translate(-227.125 -165.588)"/>
            </g>
            <g id="Group_41" data-name="Group 41" transform="translate(460.393 124.555)">
                <path id="Path_119" d="M227.057 168.023a2.681 2.681 0 0 0 1 2.847 1.977 1.977 0 0 0 2.039 0 2.32 2.32 0 0 0 1.021-1.375 1.957 1.957 0 0 0-.512-1.934l-.226-.192-.967 2.338.546.02q-1.314-1.309-2.628-2.625a8.079 8.079 0 0 0 .34 3c.549 1.395.93 2.621 2.325 3.4a2.932 2.932 0 0 0 3.949-1.034 5.066 5.066 0 0 0 .131-4.438 5.839 5.839 0 0 0-2.793-3.2c-2.574-1.6-5.26 2.018-3.184 4.124l.344.347c.324-.778.647-1.56.97-2.338a2.544 2.544 0 0 0-1.216.283c-.135.1-.27.206-.4.31-.155.172-.067.115.263-.175l2.446.317-.024-.024c.175.3.347.6.519.893-.037.825-.02 1.011.057.563.044-.185.091-.367.145-.549a2.112 2.112 0 1 0-4.148-.563z" class="cls-10" data-name="Path 119" transform="translate(-227.017 -164.44)"/>
            </g>
            <g id="Group_42" data-name="Group 42" transform="translate(477.733 128.241)">
                <path id="Path_120" d="M232.287 182.983c1.867 3.44 4.3 7.281 8.255 8.5 3.043.94 6.126-.768 7.935-3.11 4.475-5.806 5.165-15.429 2.288-21.945-.755-1.712-3.275-.735-3.312.9-.125 5.209.425 11.059-1.924 15.887-2.9 5.967-8.255 1.948-11.756-1.378a.95.95 0 0 0-1.486 1.146z" class="cls-10" data-name="Path 120" transform="translate(-232.163 -165.533)"/>
            </g>
            <g id="Group_43" data-name="Group 43" transform="translate(470.307 160.036)">
                <path id="Path_121" d="M230.305 177.181c3.494 3.541 6.661 8.5 9.431 12.656a33.03 33.03 0 0 1 3.605 7.035c.981 2.726 1.122 5.024 3.265 7.174a4.342 4.342 0 0 0 6.759-.873c3.471-5.974-1.816-13.006-5.448-17.669-4.444-5.708-9.808-8.124-16.369-10.462-1.247-.441-2.1 1.274-1.243 2.14z" class="cls-10" data-name="Path 121" transform="translate(-229.959 -174.97)"/>
            </g>
            <g id="Group_44" data-name="Group 44" transform="translate(450.436 159.81)">
                <path id="Path_122" d="M243.366 177.222c7.238 12.177 5.172 27.255.482 39.938-2.686 7.268-6.55 14.229-10.361 20.958-3.268 5.775-8.144 11.507-9.34 18.165-.755 4.2 3.673 9.131 7.969 6.126 6.5-4.552 10.213-12.322 14.148-19.024a125.238 125.238 0 0 0 11.807-26.241c5.037-16.187 3.625-33.388-12.575-42.051a1.567 1.567 0 0 0-2.13 2.13z" class="cls-10" data-name="Path 122" transform="translate(-224.062 -174.903)"/>
            </g>
            <g id="Group_45" data-name="Group 45" transform="translate(106.683 412.652)">
                <path id="Path_123" d="M122.109 252.468c3.1 11.78 8.528 22.639 10.668 34.725a76.5 76.5 0 0 1 .856 17.875c-.307 5.287-2.935 11.87.617 16.493.913 1.186 2.416 2.247 4.02 1.634 11.844-4.532 8.444-27.484 7.093-37.205-1.863-13.407-8.043-28.805-20.311-35.783a2.02 2.02 0 0 0-2.941 2.261z" class="cls-10" data-name="Path 123" transform="translate(-122.041 -249.943)"/>
            </g>
            <g id="Group_46" data-name="Group 46" transform="translate(13.431 462.182)">
                <path id="Path_124" d="M94.372 296.421c3.467 18.023 27.326 11.736 40 9.128a250.914 250.914 0 0 0 40.544-12.268c6.88-2.682 13.7-5.563 20.469-8.5 6.736-2.921 13.862-5.715 18.795-11.325 3.656-4.158.037-9.512-5.084-8.734-11.089 1.681-21.6 9.977-31.622 14.8-11.975 5.762-24.617 9.866-37.2 14.024-11.254 3.716-35.79 14.222-45.251 2.507-.27-.334-.718.034-.65.374z" class="cls-10" data-name="Path 124" transform="translate(-94.365 -264.642)"/>
            </g>
            <g id="Group_47" data-name="Group 47" transform="translate(64.321 321.683)">
                <path id="Path_125" d="M110.694 378.23c10.513 3.063 17.329-18.562 19.4-25.375a129.637 129.637 0 0 0 5.175-49.079c-1.146-14.842-3.834-29.486-5.56-44.261a119.046 119.046 0 0 1-.916-18.717c.2-4.724 3.231-10.476 1.641-15.075a3.873 3.873 0 0 0-3.642-2.776c-19.748-.4-7.534 54.389-6.136 64.754 2.359 17.511 3.063 34 1.25 51.583a88.006 88.006 0 0 1-4.815 20.665c-1.8 5.047-7.75 11.412-7.622 16.675a1.7 1.7 0 0 0 1.223 1.607z" class="cls-10" data-name="Path 125" transform="translate(-109.468 -222.944)"/>
            </g>
            <g id="Group_48" data-name="Group 48" transform="translate(64.941 221.866)">
                <path id="Path_126" d="M110.864 292.917c11.321 6.2 23.32 3.342 32.623-5.088 11.483-10.4 13.232-25.412 16.733-39.55 2.409-9.734 7.467-16.642 14.977-23.094 5.1-4.384 11.2-7.328 16.328-11.7 4.1-3.494 6.361-9.1 3.986-14.219a9.7 9.7 0 0 0-12.218-5.334 3.555 3.555 0 0 0-1.543 5.856 26.665 26.665 0 0 0 4.353 3.5c1.321.96-4.694 5.2-5.111 5.489-3.747 2.611-7.625 4.869-11.23 7.7A51.638 51.638 0 0 0 151 245.735c-2.9 11.587-4.38 23.01-11.982 32.747-6.823 8.737-16.47 9.98-26.895 9.771a2.518 2.518 0 0 0-1.26 4.663z" class="cls-10" data-name="Path 126" transform="translate(-109.652 -193.32)"/>
            </g>
            <g id="Group_49" data-name="Group 49" transform="translate(8.071 245.561)">
                <path id="Path_127" d="M92.908 224.79c3.568 6.752 6.9 13.2 14.108 16.749 6.992 3.437 14.859.226 21.217-3.046a90.3 90.3 0 0 0 20.067-14.782c4.744-4.485 12.753-14.458 8.124-21.12-1.307-1.884-3.959-3.029-6.082-1.594-4.387 2.968-5.718 8.9-9.044 12.969a107.533 107.533 0 0 1-13.398 13.785c-4.933 4.222-11.4 9.4-18.272 7.6-5.293-1.392-11.008-8.275-15.146-11.776a1 1 0 0 0-1.57 1.213z" class="cls-10" data-name="Path 127" transform="translate(-92.774 -200.352)"/>
            </g>
            <g id="Group_50" data-name="Group 50" transform="translate(63.5 210.284)">
                <path id="Path_128" d="M126.033 190.275c.408 9.478 3.737 18.785 1.072 28.222-.761 2.7-2.685 6.217-5.8 6.409-3.642.229-6.331-4.033-8.609-6.2a2.074 2.074 0 0 0-3.44 2c1.766 10.8 13.71 15.452 21.733 7.932 10.021-9.391 3.265-30.012-4.293-38.637a.391.391 0 0 0-.664.276z" class="cls-10" data-name="Path 128" transform="translate(-109.225 -189.883)"/>
            </g>
            <g id="Group_51" data-name="Group 51" transform="translate(74.136 245.683)">
                <path id="Path_129" d="M115.271 204.467a26.917 26.917 0 0 1-2.214 2.938c-1.958 2.4.674 6.773 3.578 4.64a70.465 70.465 0 0 0 6.5-5.947q-2.719-1.577-5.432-3.16c-.492 2.116-1.011 4.242-1.675 6.311a4.509 4.509 0 0 0 2.066 5.078c2.284 1.341 4.7.354 6.153-1.614 1.24-1.678 2.642-3.248 3.942-4.879l-7.285-4.242c-.772 3.117-.411 6.823 2.584 8.636 3.1 1.873 6.533-.6 6.776-3.888a4.958 4.958 0 0 0-.617-2.716c-.354-.7-.2.374-.185-.873a4.385 4.385 0 0 0-3.2-4.2 4.493 4.493 0 0 0-4.919 2c-1.253 1.665-2.851 3.093-4.165 4.714l7.679 3.181a12.614 12.614 0 0 0-.286-3.012c-.128-.768-.721-2.015-.6-2.766.458-2.925-3.019-5.812-5.432-3.16a63.984 63.984 0 0 1-5.482 5.9l5.041 2.089a30.585 30.585 0 0 1-.027-4.269c.142-1.563-2.065-1.944-2.8-.758z" class="cls-10" data-name="Path 129" transform="translate(-112.381 -200.388)"/>
            </g>
            <g id="Group_52" data-name="Group 52" transform="translate(372.026 228.272)">
                <path id="Path_130" d="M269.844 196.366c-5.229 10.883-9.327 22.252-14.526 33.165-5.078 10.661-10.671 21.1-15.941 31.669a218.845 218.845 0 0 1-16.948 28.671c-6.068 8.609-15.112 14.327-21.315 22.643-.947 1.277.35 2.989 1.728 3.012 10.442.2 19.344-8.41 25.978-15.547 8.424-9.057 14.505-19.87 20.126-30.8 6.078-11.817 12.228-23.664 17.962-35.652 5.307-11.092 10.486-24.223 7.2-36.6-.492-1.846-3.369-2.426-4.269-.559z" class="cls-10" data-name="Path 130" transform="translate(-200.791 -195.221)"/>
            </g>
            <g id="Group_53" data-name="Group 53" transform="translate(399.331 234.204)">
                <path id="Path_131" d="M258.71 198.027c-6.83 14-15.115 27.181-22.946 40.629-3.1 5.317 4.855 9.856 8.178 4.781 7.78-11.881 13.262-25.112 23.8-34.978q-3.528-2.057-7.062-4.111c-5.8 15.53-16.7 28.64-25.53 42.489l9.4 5.5c8.72-14.431 16.962-29.011 28.182-41.727q-4.387-2.557-8.771-5.108c-6.951 16.621-19.475 30.14-26.774 46.562-3.285 7.389 6.486 13.5 11.011 6.436 10.583-16.507 20.439-33.465 31.022-49.972l-10.442-6.105c-9.209 15.786-18.532 31.491-27.046 47.667l10.468 6.11c6.577-13.96 12.066-28.475 21.052-41.144q-4.23-2.471-8.451-4.94c-8.531 16.177-20.385 30.891-30.466 46.128-6.749 10.2-11.048 23.04-22.073 29.509q5.069 2.906 10.132 5.812c-1.041-8.5 6.3-16.311 10.186-23.333 1.681-3.046-2.409-6.405-4.889-3.774-7.8 8.289-17.346 15.038-18.761 27.107-.512 4.367 4.68 7.639 8.521 6.49 13.417-4.006 19.624-19.661 25.379-31.053 9.013-17.828 20.368-34.688 30.423-51.947 2.719-4.673-4.215-10.418-7.686-5.93-9.758 12.622-16 27.164-23.829 40.959-3.875 6.823 6.85 13.016 10.462 6.116 8.474-16.19 17.646-32 27.026-47.677 4.037-6.746-6.19-12.575-10.442-6.105-10.772 16.4-20.82 33.246-31.592 49.642l11.011 6.436c7.854-17.154 19.341-32.438 25.881-50.208 1.8-4.892-5.4-9-8.771-5.1a248.753 248.753 0 0 0-30.163 43.654c-3.356 6.166 5.873 11.577 9.4 5.5 8.717-15.007 19.165-28.943 24.277-45.74 1.3-4.269-4.043-6.776-7.062-4.107-11.2 9.9-18.256 23.61-26.005 36.171l8.178 4.781c6.928-14.34 15.115-28.131 18.528-43.823.475-2.18-2.689-3.774-3.76-1.587z" class="cls-10" data-name="Path 131" transform="translate(-208.895 -196.982)"/>
            </g>
            <g id="Group_54" data-name="Group 54" transform="translate(389.216 283.377)">
                <path id="Path_132" d="M247.375 212.567c-7.5 8.626-14.273 17.649-21.1 26.8-6.675 8.956-17.575 19.186-20.291 30.234-.576 2.338 1.631 5.084 4.171 4.171 10.226-3.666 17.851-15.324 23.869-23.866a174.644 174.644 0 0 0 19.111-33.987c1.328-3.2-3.585-5.856-5.762-3.353z" class="cls-10" data-name="Path 132" transform="translate(-205.893 -211.576)"/>
            </g>
            <g id="Group_55" data-name="Group 55" transform="translate(429.594 221.638)">
                <path id="Path_133" d="M274 193.6c-10.62 12.464-20.233 25.443-29.617 38.863-4.889 6.995-9.441 14.222-14.256 21.271-4.431 6.486-9.226 12.955-12.1 20.314-.863 2.21 2.17 4.535 4.084 3.14 12.319-8.99 20.874-25.23 28.276-38.253 8.35-14.694 16.207-29.779 25.355-43.988.677-1.055-.923-2.315-1.745-1.348z" class="cls-10" data-name="Path 133" transform="translate(-217.876 -193.252)"/>
            </g>
            <g id="Group_56" data-name="Group 56" transform="translate(456.62 229.083)">
                <path id="Path_134" d="M257.987 209.86c2.015-1.894 8.093-9.6 4.461-12.44-4-3.127-9.562-2.1-13.788.226-5.2 2.861-9.111 8.592-12.6 13.228a127.255 127.255 0 0 0-9.994 15.968c-.758 1.388 1.189 3.059 2.271 1.752 4.377-5.287 7.608-11.254 11.8-16.658a32.434 32.434 0 0 1 8.872-8c4.04-2.47 7.393-1.877 11.746-2.436q-1.152-.874-2.3-1.755c.97 3.679-.168 5.94-2.214 8.767-.765 1.058.863 2.177 1.749 1.348z" class="cls-10" data-name="Path 134" transform="translate(-225.897 -195.462)"/>
            </g>
            <g id="Group_57" data-name="Group 57" transform="translate(448.501 255.327)">
                <path id="Path_135" d="M244.009 236.45c-6.776-1.092-14.084-3.218-14.6-11.1-.465-7.052 4.2-13.646 7.194-19.661a1.674 1.674 0 0 0-2.618-2.018c-6.9 5.364-11.975 15.894-10.1 24.752 2.1 9.92 11.352 12.4 20.129 10.28 1.068-.256 1.166-2.062 0-2.251z" class="cls-10" data-name="Path 135" transform="translate(-223.488 -203.251)"/>
            </g>
            <g id="Group_58" data-name="Group 58" transform="translate(330.484 246.206)">
                <path id="Path_136" d="M296.133 200.9c-14.822 24.947-25.675 51.488-45.215 73.417-9.225 10.348-20.26 16.052-33.219 20.432-5.762 1.951-11.665 3.477-17.521 5.118-4.148 1.169-9.209 2.733-11.493 6.631a1.636 1.636 0 0 0 .964 2.369c4.488 1.641 10.2-.445 14.64-1.584 6.591-1.685 13.225-3.144 19.735-5.142 12.989-3.986 23.947-11.749 32.953-21.77 19.711-21.925 30.7-51.542 40.581-78.868.307-.852-.987-1.341-1.425-.6z" class="cls-10" data-name="Path 136" transform="translate(-188.462 -200.544)"/>
            </g>
        </g>
        <path id="Path_137" d="M28.322-1087.534l7.95-83.224 75.309 71-65.953 51.484L9.166-930.489c3.222 6.261-85.748-63.969-85.748-63.969l59.429-14.641 26.318-22.467 6.956-16.712 12.2-5.213 7.95-18.774z" class="cls-11" data-name="Path 137" transform="translate(1154 1516.977)"/>
        <path id="Path_138" d="M28.322-1087.534l7.95-83.224 75.309 71-65.953 51.484L9.166-930.489c3.222 6.261-85.748-63.969-85.748-63.969l59.429-14.641 26.318-22.467 6.956-16.712 12.2-5.213 7.95-18.774z" class="cls-11" data-name="Path 138" transform="translate(1150 1523.977)"/>
        <path id="Path_139" d="M28.322-1087.534l7.95-83.224 75.309 71-65.953 51.484L9.166-930.489c3.222 6.261-85.748-63.969-85.748-63.969l59.429-14.641 26.318-22.467 6.956-16.712 12.2-5.213 7.95-18.774z" class="cls-11" data-name="Path 139" transform="translate(1145 1529.977)"/>
        <g id="Ellipse_14" class="cls-12" data-name="Ellipse 14" transform="rotate(42 78.34 1769.423)">
            <circle cx="20.5" cy="20.5" r="20.5" class="cls-16"/>
            <circle cx="20.5" cy="20.5" r="17.5" class="cls-17"/>
        </g>
        <g id="Ellipse_15" class="cls-12" data-name="Ellipse 15" transform="rotate(42 -109.112 1738.293)">
            <circle cx="20.193" cy="20.193" r="20.193" class="cls-16"/>
            <circle cx="20.193" cy="20.193" r="17.193" class="cls-17"/>
        </g>
        <text id="_" class="cls-13" data-name="$" transform="rotate(25 -391.122 2905.15)">
            <tspan x="0" y="0">$</tspan>
        </text>
        <text id="_2" class="cls-14" data-name="$" transform="rotate(25 -683.354 2813.716)">
            <tspan x="0" y="0">$</tspan>
        </text>
        <circle id="Ellipse_16" cx="4.5" cy="4.5" r="4.5" class="cls-10" data-name="Ellipse 16" transform="translate(1168 492)"/>
        <path id="Path_141" d="M197.477-838.31l-5.917 77.172-153.578-88.445L245.44-641.935v-33.115l-14.63-3.971h-12.5l-7.7-13.87v-17.6l4.887-15.079 2.814-5.772 4.536-12.612 22.591-29.38 16.917-11.151z" class="cls-15" data-name="Path 141" transform="translate(1162 1525)"/>
        <path id="Path_142" d="M335.539-725.883l78.289 64.115L301.3-714.042l2.961-16.4z" class="cls-15" data-name="Path 142" transform="translate(1162 1525)"/>
    </g>
</svg>
