<svg xmlns="http://www.w3.org/2000/svg" width="203.332" height="80.652" viewBox="0 0 203.332 80.652">
    <defs>
        <style>
            .cls-1{fill:#00187b}.cls-2{fill:#2abc26}.cls-3{fill:#fff;fill-rule:evenodd}
        </style>
    </defs>
    <g id="Group_63" data-name="Group 63" transform="translate(-49 -31)">
        <g id="Group_12" data-name="Group 12" transform="translate(145.855 34.602)">
            <path id="Path_15" d="M275.244 159.6c0-2.838 1.655-4.1 3.8-4.1a3.559 3.559 0 0 1 2.265.723 1.093 1.093 0 0 0 1.342 0 3.559 3.559 0 0 1 2.265-.723c2.141 0 3.8 1.266 3.8 4.1v5.629a1.087 1.087 0 0 1-1.087 1.087h-.453a1.087 1.087 0 0 1-1.087-1.087V159.6c0-1.233-.6-1.671-1.4-1.671-.779 0-1.395.438-1.395 1.671v5.629a1.087 1.087 0 0 1-1.087 1.087h-.454a1.087 1.087 0 0 1-1.087-1.087V159.6c0-1.233-.616-1.671-1.395-1.671-.795 0-1.394.438-1.394 1.671v5.629a1.087 1.087 0 0 1-1.087 1.087h-.454a1.087 1.087 0 0 1-1.087-1.087z" class="cls-1" data-name="Path 15" transform="translate(-275.244 -155.491)"/>
            <path id="Path_16" d="M304.9 161.828l-2.675-4.286a1.088 1.088 0 0 1 .923-1.663h.5a1.088 1.088 0 0 1 .948.556l.833 1.485a1.087 1.087 0 0 0 1.9 0l.833-1.485a1.088 1.088 0 0 1 .948-.556h.44a1.087 1.087 0 0 1 .924 1.661l-2.616 4.207a1.089 1.089 0 0 0-.164.574v3.08a1.087 1.087 0 0 1-1.087 1.087h-.453a1.087 1.087 0 0 1-1.087-1.087v-3a1.087 1.087 0 0 0-.167-.573z" class="cls-1" data-name="Path 16" transform="translate(-287.481 -155.668)"/>
            <g id="Group_11" data-name="Group 11" transform="translate(0 15.054)">
                <path id="Path_17" d="M276.331 183.182H289.5a1.087 1.087 0 0 1 1.087 1.087v2.589a1.087 1.087 0 0 1-1.087 1.087h-8.022a1.088 1.088 0 0 0-1.087 1.087v1.224a1.087 1.087 0 0 0 1.087 1.087h6.18a1.087 1.087 0 0 1 1.087 1.087v1.954a1.087 1.087 0 0 1-1.087 1.087h-6.18a1.088 1.088 0 0 0-1.087 1.087v1.542a1.088 1.088 0 0 0 1.087 1.087h8.022a1.087 1.087 0 0 1 1.087 1.087v2.589a1.087 1.087 0 0 1-1.087 1.087h-13.169a1.088 1.088 0 0 1-1.087-1.087v-18.6a1.087 1.087 0 0 1 1.087-1.081z" class="cls-1" data-name="Path 17" transform="translate(-275.244 -183.182)"/>
                <path id="Path_18" d="M309.017 199.743c0-5.272 3.112-7.973 7.751-7.973s7.75 2.668 7.75 7.973v7.044a1.087 1.087 0 0 1-1.087 1.087h-2.59a1.087 1.087 0 0 1-1.087-1.087v-7.044c0-2.477-1.206-3.526-2.985-3.526s-2.986 1.048-2.986 3.526v7.044a1.087 1.087 0 0 1-1.087 1.087H310.1a1.087 1.087 0 0 1-1.087-1.087z" class="cls-1" data-name="Path 18" transform="translate(-290.656 -187.101)"/>
                <path id="Path_19" d="M342.089 200.028a8.4 8.4 0 0 1 16.8 0v.247a1.087 1.087 0 0 1-1.087 1.087h-8.947a1.089 1.089 0 0 0-.675 1.944 3.752 3.752 0 0 0 2.355.724 3.681 3.681 0 0 0 2.732-.839 1.051 1.051 0 0 1 .748-.3h2.753a1.089 1.089 0 0 1 .939 1.643 8.547 8.547 0 0 1-15.621-4.5zm9.48-1.683a1.09 1.09 0 0 0 .32-2.131 4.588 4.588 0 0 0-1.351-.188 4.464 4.464 0 0 0-1.339.19 1.09 1.09 0 0 0 .328 2.128z" class="cls-1" data-name="Path 19" transform="translate(-305.749 -187.101)"/>
                <path id="Path_20" d="M377.556 198.949c0-4.892 2.859-7.179 7.052-7.179s7.02 2.255 7.052 7.21v.1h-4.765v-.127c0-2.1-.953-2.732-2.287-2.732s-2.287.635-2.287 2.732v7.838a1.088 1.088 0 0 1-1.087 1.087h-2.59a1.087 1.087 0 0 1-1.087-1.087z" class="cls-1" data-name="Path 20" transform="translate(-321.934 -187.101)"/>
                <path id="Path_21" d="M407.878 209.4h2.7a1.144 1.144 0 0 1 .871.438 3.686 3.686 0 0 0 2.926 1.023c2.319 0 3.589-.985 3.589-4.034v-.927a5.291 5.291 0 0 1-4.543 2.128c-3.335 0-7.527-2.192-7.527-8a8.059 8.059 0 0 1 8.449-8.258c4.955 0 8.386 3.272 8.386 8.417v6.48c0 6-3.78 8.322-8.322 8.322-3.414 0-6.18-1.271-7.512-4.03a1.09 1.09 0 0 1 .983-1.559zm10.086-9.37a3.626 3.626 0 1 0-7.242 0 3.622 3.622 0 0 0 7.242 0z" class="cls-1" data-name="Path 21" transform="translate(-334.866 -187.101)"/>
                <path id="Path_22" d="M444.186 209.745h2.7a1.068 1.068 0 0 1 .861.472 2.829 2.829 0 0 0 2.558.989c2.1 0 3.017-.985 3.017-3.367v-1.556a4.484 4.484 0 0 1-3.907 2.1c-3.3 0-6.829-2.224-6.829-7.972v-6.79a1.087 1.087 0 0 1 1.087-1.087h2.59a1.087 1.087 0 0 1 1.087 1.087v6.79c0 2.477 1.207 3.525 2.986 3.525 1.715 0 2.986-1.112 2.986-3.525v-6.79a1.087 1.087 0 0 1 1.087-1.087H457a1.087 1.087 0 0 1 1.087 1.087v14.064c0 5.464-3.494 7.655-7.782 7.655-3.187 0-5.907-1.261-7.118-4.064a1.092 1.092 0 0 1 .999-1.531z" class="cls-1" data-name="Path 22" transform="translate(-351.611 -187.448)"/>
                <path id="Path_23" d="M275.244 240.211a1.088 1.088 0 0 1 1.087-1.087h8.791c4.066 0 6.1 2.287 6.1 5.464a4.843 4.843 0 0 1-2.51 4.479v.064a5.111 5.111 0 0 1 3.463 5.083c0 3.271-2.065 5.686-6.226 5.686h-9.617a1.088 1.088 0 0 1-1.087-1.087zm9.021 7.076c1.366 0 1.874-.762 1.874-1.683 0-.953-.381-1.715-1.874-1.715h-2.788a1.087 1.087 0 0 0-1.087 1.087v1.224a1.088 1.088 0 0 0 1.087 1.087zm.635 7.845c1.493 0 2-.825 2-1.842a1.819 1.819 0 0 0-2-1.874h-3.423a1.088 1.088 0 0 0-1.087 1.087v1.541a1.087 1.087 0 0 0 1.087 1.087z" class="cls-1" data-name="Path 23" transform="translate(-275.244 -208.711)"/>
                <path id="Path_24" d="M310.77 256.6v-7.04a1.087 1.087 0 0 1 1.087-1.087h2.59a1.087 1.087 0 0 1 1.087 1.087v7.04c0 2.477 1.207 3.526 2.986 3.526s2.985-1.048 2.985-3.526v-7.04a1.087 1.087 0 0 1 1.087-1.087h2.59a1.087 1.087 0 0 1 1.087 1.087v7.04c0 5.273-3.112 7.973-7.75 7.973s-7.749-2.664-7.749-7.973z" class="cls-1" data-name="Path 24" transform="translate(-291.456 -212.977)"/>
                <path id="Path_25" d="M343.842 250.368a7.62 7.62 0 0 1 7.624-8.067 5.808 5.808 0 0 1 2.855.694 1.081 1.081 0 0 0 1.592-.961v-5.095a1.087 1.087 0 0 1 1.087-1.087h2.59a1.087 1.087 0 0 1 1.087 1.087V250.4c0 5.273-3.558 8.418-8.354 8.418a8.062 8.062 0 0 1-8.481-8.45zm12.07.191a3.626 3.626 0 1 0-3.621 3.812 3.538 3.538 0 0 0 3.621-3.812z" class="cls-1" data-name="Path 25" transform="translate(-306.548 -207.218)"/>
                <path id="Path_26" d="M379.367 250.368a7.62 7.62 0 0 1 7.623-8.067 5.809 5.809 0 0 1 2.855.694 1.081 1.081 0 0 0 1.591-.961v-5.095a1.088 1.088 0 0 1 1.087-1.087h2.591a1.088 1.088 0 0 1 1.087 1.087V250.4c0 5.273-3.558 8.418-8.354 8.418a8.062 8.062 0 0 1-8.48-8.45zm12.07.191a3.626 3.626 0 1 0-3.621 3.812 3.538 3.538 0 0 0 3.621-3.812z" class="cls-1" data-name="Path 26" transform="translate(-322.76 -207.218)"/>
                <path id="Path_27" d="M417.659 265.689h2.7a1.069 1.069 0 0 1 .861.472 2.829 2.829 0 0 0 2.558.989c2.1 0 3.017-.985 3.017-3.367v-1.556a4.482 4.482 0 0 1-3.907 2.1c-3.3 0-6.829-2.224-6.829-7.973v-6.79a1.087 1.087 0 0 1 1.087-1.087h2.591a1.087 1.087 0 0 1 1.087 1.087v6.79c0 2.478 1.207 3.526 2.986 3.526 1.715 0 2.985-1.112 2.985-3.526v-6.79a1.087 1.087 0 0 1 1.087-1.087h2.591a1.087 1.087 0 0 1 1.087 1.087v14.064c0 5.463-3.495 7.655-7.782 7.655-3.187 0-5.907-1.261-7.117-4.064a1.092 1.092 0 0 1 .998-1.53z" class="cls-1" data-name="Path 27" transform="translate(-339.505 -212.977)"/>
            </g>
        </g>
        <g id="Group_13" data-name="Group 13" transform="translate(49 31)">
            <rect id="Rectangle_26" width="80.652" height="80.652" class="cls-2" data-name="Rectangle 26" rx="40.326"/>
            <path id="Path_28" d="M464.333 314.624l-21.47 26.747a1.776 1.776 0 0 0 1.326 2.887l19.62.647a1.776 1.776 0 0 1 1.635 2.311l-4.772 15.093a1.776 1.776 0 0 0 3.049 1.683l22.98-27.137a1.777 1.777 0 0 0-1.3-2.924l-19.69-.649a1.777 1.777 0 0 1-1.674-2.169l3.409-14.983a1.776 1.776 0 0 0-3.113-1.506z" class="cls-3" data-name="Path 28" transform="translate(-424.458 -298.642)"/>
        </g>
    </g>
</svg>
